<svg width="110" height="160" viewBox="0 0 110 160" fill="none" xmlns="http://www.w3.org/2000/svg">
<mask id="path-1-outside-1_518_724" maskUnits="userSpaceOnUse" x="20" y="84" width="70" height="12" fill="black">
<rect fill="white" x="20" y="84" width="70" height="12"/>
<path d="M21.8215 95H20.5289L24.2675 84.8182H25.5402L29.2789 95H27.9862L24.9436 86.429H24.8641L21.8215 95ZM22.2987 91.0227H27.509V92.1165H22.2987V91.0227ZM33.5892 95.1591C32.9529 95.1591 32.3911 94.9983 31.9039 94.6768C31.4166 94.352 31.0355 93.8946 30.7604 93.3047C30.4853 92.7114 30.3477 92.0104 30.3477 91.2017C30.3477 90.3996 30.4853 89.7036 30.7604 89.1136C31.0355 88.5237 31.4183 88.0679 31.9088 87.7464C32.3994 87.425 32.9661 87.2642 33.6091 87.2642C34.1063 87.2642 34.499 87.3471 34.7874 87.5128C35.079 87.6752 35.3011 87.8608 35.4536 88.0696C35.6093 88.2751 35.7303 88.4441 35.8165 88.5767H35.9159V84.8182H37.0892V95H35.9557V93.8267H35.8165C35.7303 93.9659 35.6077 94.1416 35.4486 94.3537C35.2895 94.5625 35.0625 94.7498 34.7675 94.9155C34.4725 95.0779 34.0798 95.1591 33.5892 95.1591ZM33.7483 94.1051C34.219 94.1051 34.6167 93.9825 34.9415 93.7372C35.2663 93.4886 35.5132 93.1456 35.6823 92.7081C35.8513 92.2673 35.9358 91.7585 35.9358 91.1818C35.9358 90.6117 35.853 90.1129 35.6872 89.6854C35.5215 89.2545 35.2762 88.9197 34.9514 88.6811C34.6266 88.4392 34.2256 88.3182 33.7483 88.3182C33.2512 88.3182 32.8369 88.4458 32.5054 88.701C32.1773 88.9529 31.9304 89.2959 31.7646 89.7301C31.6022 90.161 31.521 90.6449 31.521 91.1818C31.521 91.7254 31.6039 92.2192 31.7696 92.6634C31.9387 93.1042 32.1872 93.4555 32.5154 93.7173C32.8468 93.9759 33.2578 94.1051 33.7483 94.1051ZM42.2845 95.1591C41.6482 95.1591 41.0864 94.9983 40.5992 94.6768C40.1119 94.352 39.7308 93.8946 39.4557 93.3047C39.1806 92.7114 39.0431 92.0104 39.0431 91.2017C39.0431 90.3996 39.1806 89.7036 39.4557 89.1136C39.7308 88.5237 40.1136 88.0679 40.6041 87.7464C41.0947 87.425 41.6614 87.2642 42.3044 87.2642C42.8016 87.2642 43.1943 87.3471 43.4827 87.5128C43.7744 87.6752 43.9964 87.8608 44.1489 88.0696C44.3047 88.2751 44.4256 88.4441 44.5118 88.5767H44.6112V84.8182H45.7845V95H44.651V93.8267H44.5118C44.4256 93.9659 44.303 94.1416 44.1439 94.3537C43.9848 94.5625 43.7578 94.7498 43.4628 94.9155C43.1678 95.0779 42.7751 95.1591 42.2845 95.1591ZM42.4436 94.1051C42.9143 94.1051 43.312 93.9825 43.6368 93.7372C43.9616 93.4886 44.2085 93.1456 44.3776 92.7081C44.5466 92.2673 44.6311 91.7585 44.6311 91.1818C44.6311 90.6117 44.5483 90.1129 44.3825 89.6854C44.2168 89.2545 43.9716 88.9197 43.6468 88.6811C43.3219 88.4392 42.9209 88.3182 42.4436 88.3182C41.9465 88.3182 41.5322 88.4458 41.2007 88.701C40.8726 88.9529 40.6257 89.2959 40.46 89.7301C40.2976 90.161 40.2164 90.6449 40.2164 91.1818C40.2164 91.7254 40.2992 92.2192 40.4649 92.6634C40.634 93.1042 40.8825 93.4555 41.2107 93.7173C41.5421 93.9759 41.9531 94.1051 42.4436 94.1051ZM52.1929 95V84.8182H55.6333C56.432 84.8182 57.085 84.9624 57.5921 85.2507C58.1025 85.5357 58.4803 85.9219 58.7256 86.4091C58.9709 86.8963 59.0935 87.4399 59.0935 88.0398C59.0935 88.6397 58.9709 89.1849 58.7256 89.6754C58.4836 90.166 58.1091 90.5571 57.602 90.8487C57.0949 91.1371 56.4453 91.2812 55.6531 91.2812H53.1872V90.1875H55.6134C56.1602 90.1875 56.5994 90.093 56.9308 89.9041C57.2623 89.7152 57.5026 89.46 57.6517 89.1385C57.8042 88.8137 57.8804 88.4474 57.8804 88.0398C57.8804 87.6321 57.8042 87.2675 57.6517 86.946C57.5026 86.6245 57.2606 86.3726 56.9259 86.1903C56.5911 86.0047 56.147 85.9119 55.5935 85.9119H53.4259V95H52.1929ZM62.0938 90.4062V95H60.9205V84.8182H62.0938V88.5568H62.1933C62.3722 88.1624 62.6407 87.8492 62.9987 87.6172C63.3599 87.3819 63.8405 87.2642 64.4404 87.2642C64.9608 87.2642 65.4165 87.3686 65.8076 87.5774C66.1987 87.7829 66.502 88.0994 66.7174 88.527C66.9362 88.9512 67.0455 89.4915 67.0455 90.1477V95H65.8722V90.2273C65.8722 89.6207 65.7148 89.1518 65.3999 88.8203C65.0884 88.4856 64.6559 88.3182 64.1024 88.3182C63.7179 88.3182 63.3732 88.3994 63.0683 88.5618C62.7667 88.7242 62.528 88.9612 62.3524 89.2727C62.18 89.5843 62.0938 89.9621 62.0938 90.4062ZM72.2943 95.1591C71.6049 95.1591 71 94.995 70.4797 94.6669C69.9626 94.3388 69.5583 93.8797 69.2666 93.2898C68.9782 92.6998 68.8341 92.0104 68.8341 91.2216C68.8341 90.4261 68.9782 89.7318 69.2666 89.1385C69.5583 88.5452 69.9626 88.0845 70.4797 87.7564C71 87.4283 71.6049 87.2642 72.2943 87.2642C72.9837 87.2642 73.5869 87.4283 74.104 87.7564C74.6243 88.0845 75.0287 88.5452 75.317 89.1385C75.6087 89.7318 75.7545 90.4261 75.7545 91.2216C75.7545 92.0104 75.6087 92.6998 75.317 93.2898C75.0287 93.8797 74.6243 94.3388 74.104 94.6669C73.5869 94.995 72.9837 95.1591 72.2943 95.1591ZM72.2943 94.1051C72.818 94.1051 73.2488 93.9709 73.5869 93.7024C73.925 93.4339 74.1752 93.081 74.3376 92.6435C74.5 92.206 74.5812 91.732 74.5812 91.2216C74.5812 90.7112 74.5 90.2356 74.3376 89.7947C74.1752 89.3539 73.925 88.9976 73.5869 88.7259C73.2488 88.4541 72.818 88.3182 72.2943 88.3182C71.7706 88.3182 71.3398 88.4541 71.0017 88.7259C70.6636 88.9976 70.4134 89.3539 70.251 89.7947C70.0886 90.2356 70.0074 90.7112 70.0074 91.2216C70.0074 91.732 70.0886 92.206 70.251 92.6435C70.4134 93.081 70.6636 93.4339 71.0017 93.7024C71.3398 93.9709 71.7706 94.1051 72.2943 94.1051ZM80.8666 87.3636V88.358H76.9092V87.3636H80.8666ZM78.0626 85.5341H79.2359V92.8125C79.2359 93.1439 79.2839 93.3925 79.3801 93.5582C79.4795 93.7206 79.6054 93.83 79.7579 93.8864C79.9137 93.9394 80.0777 93.9659 80.2501 93.9659C80.3794 93.9659 80.4854 93.9593 80.5683 93.946C80.6511 93.9295 80.7174 93.9162 80.7671 93.9062L81.0058 94.9602C80.9262 94.9901 80.8152 95.0199 80.6727 95.0497C80.5302 95.0829 80.3495 95.0994 80.1308 95.0994C79.7993 95.0994 79.4745 95.0282 79.1563 94.8857C78.8415 94.7431 78.5796 94.526 78.3708 94.2344C78.1653 93.9427 78.0626 93.5748 78.0626 93.1307V85.5341ZM85.6517 95.1591C84.9623 95.1591 84.3575 94.995 83.8371 94.6669C83.32 94.3388 82.9157 93.8797 82.624 93.2898C82.3357 92.6998 82.1915 92.0104 82.1915 91.2216C82.1915 90.4261 82.3357 89.7318 82.624 89.1385C82.9157 88.5452 83.32 88.0845 83.8371 87.7564C84.3575 87.4283 84.9623 87.2642 85.6517 87.2642C86.3411 87.2642 86.9443 87.4283 87.4614 87.7564C87.9817 88.0845 88.3861 88.5452 88.6744 89.1385C88.9661 89.7318 89.1119 90.4261 89.1119 91.2216C89.1119 92.0104 88.9661 92.6998 88.6744 93.2898C88.3861 93.8797 87.9817 94.3388 87.4614 94.6669C86.9443 94.995 86.3411 95.1591 85.6517 95.1591ZM85.6517 94.1051C86.1754 94.1051 86.6063 93.9709 86.9443 93.7024C87.2824 93.4339 87.5326 93.081 87.695 92.6435C87.8575 92.206 87.9387 91.732 87.9387 91.2216C87.9387 90.7112 87.8575 90.2356 87.695 89.7947C87.5326 89.3539 87.2824 88.9976 86.9443 88.7259C86.6063 88.4541 86.1754 88.3182 85.6517 88.3182C85.128 88.3182 84.6972 88.4541 84.3591 88.7259C84.021 88.9976 83.7708 89.3539 83.6084 89.7947C83.446 90.2356 83.3648 90.7112 83.3648 91.2216C83.3648 91.732 83.446 92.206 83.6084 92.6435C83.7708 93.081 84.021 93.4339 84.3591 93.7024C84.6972 93.9709 85.128 94.1051 85.6517 94.1051Z"/>
</mask>
<path d="M21.8215 95H20.5289L24.2675 84.8182H25.5402L29.2789 95H27.9862L24.9436 86.429H24.8641L21.8215 95ZM22.2987 91.0227H27.509V92.1165H22.2987V91.0227ZM33.5892 95.1591C32.9529 95.1591 32.3911 94.9983 31.9039 94.6768C31.4166 94.352 31.0355 93.8946 30.7604 93.3047C30.4853 92.7114 30.3477 92.0104 30.3477 91.2017C30.3477 90.3996 30.4853 89.7036 30.7604 89.1136C31.0355 88.5237 31.4183 88.0679 31.9088 87.7464C32.3994 87.425 32.9661 87.2642 33.6091 87.2642C34.1063 87.2642 34.499 87.3471 34.7874 87.5128C35.079 87.6752 35.3011 87.8608 35.4536 88.0696C35.6093 88.2751 35.7303 88.4441 35.8165 88.5767H35.9159V84.8182H37.0892V95H35.9557V93.8267H35.8165C35.7303 93.9659 35.6077 94.1416 35.4486 94.3537C35.2895 94.5625 35.0625 94.7498 34.7675 94.9155C34.4725 95.0779 34.0798 95.1591 33.5892 95.1591ZM33.7483 94.1051C34.219 94.1051 34.6167 93.9825 34.9415 93.7372C35.2663 93.4886 35.5132 93.1456 35.6823 92.7081C35.8513 92.2673 35.9358 91.7585 35.9358 91.1818C35.9358 90.6117 35.853 90.1129 35.6872 89.6854C35.5215 89.2545 35.2762 88.9197 34.9514 88.6811C34.6266 88.4392 34.2256 88.3182 33.7483 88.3182C33.2512 88.3182 32.8369 88.4458 32.5054 88.701C32.1773 88.9529 31.9304 89.2959 31.7646 89.7301C31.6022 90.161 31.521 90.6449 31.521 91.1818C31.521 91.7254 31.6039 92.2192 31.7696 92.6634C31.9387 93.1042 32.1872 93.4555 32.5154 93.7173C32.8468 93.9759 33.2578 94.1051 33.7483 94.1051ZM42.2845 95.1591C41.6482 95.1591 41.0864 94.9983 40.5992 94.6768C40.1119 94.352 39.7308 93.8946 39.4557 93.3047C39.1806 92.7114 39.0431 92.0104 39.0431 91.2017C39.0431 90.3996 39.1806 89.7036 39.4557 89.1136C39.7308 88.5237 40.1136 88.0679 40.6041 87.7464C41.0947 87.425 41.6614 87.2642 42.3044 87.2642C42.8016 87.2642 43.1943 87.3471 43.4827 87.5128C43.7744 87.6752 43.9964 87.8608 44.1489 88.0696C44.3047 88.2751 44.4256 88.4441 44.5118 88.5767H44.6112V84.8182H45.7845V95H44.651V93.8267H44.5118C44.4256 93.9659 44.303 94.1416 44.1439 94.3537C43.9848 94.5625 43.7578 94.7498 43.4628 94.9155C43.1678 95.0779 42.7751 95.1591 42.2845 95.1591ZM42.4436 94.1051C42.9143 94.1051 43.312 93.9825 43.6368 93.7372C43.9616 93.4886 44.2085 93.1456 44.3776 92.7081C44.5466 92.2673 44.6311 91.7585 44.6311 91.1818C44.6311 90.6117 44.5483 90.1129 44.3825 89.6854C44.2168 89.2545 43.9716 88.9197 43.6468 88.6811C43.3219 88.4392 42.9209 88.3182 42.4436 88.3182C41.9465 88.3182 41.5322 88.4458 41.2007 88.701C40.8726 88.9529 40.6257 89.2959 40.46 89.7301C40.2976 90.161 40.2164 90.6449 40.2164 91.1818C40.2164 91.7254 40.2992 92.2192 40.4649 92.6634C40.634 93.1042 40.8825 93.4555 41.2107 93.7173C41.5421 93.9759 41.9531 94.1051 42.4436 94.1051ZM52.1929 95V84.8182H55.6333C56.432 84.8182 57.085 84.9624 57.5921 85.2507C58.1025 85.5357 58.4803 85.9219 58.7256 86.4091C58.9709 86.8963 59.0935 87.4399 59.0935 88.0398C59.0935 88.6397 58.9709 89.1849 58.7256 89.6754C58.4836 90.166 58.1091 90.5571 57.602 90.8487C57.0949 91.1371 56.4453 91.2812 55.6531 91.2812H53.1872V90.1875H55.6134C56.1602 90.1875 56.5994 90.093 56.9308 89.9041C57.2623 89.7152 57.5026 89.46 57.6517 89.1385C57.8042 88.8137 57.8804 88.4474 57.8804 88.0398C57.8804 87.6321 57.8042 87.2675 57.6517 86.946C57.5026 86.6245 57.2606 86.3726 56.9259 86.1903C56.5911 86.0047 56.147 85.9119 55.5935 85.9119H53.4259V95H52.1929ZM62.0938 90.4062V95H60.9205V84.8182H62.0938V88.5568H62.1933C62.3722 88.1624 62.6407 87.8492 62.9987 87.6172C63.3599 87.3819 63.8405 87.2642 64.4404 87.2642C64.9608 87.2642 65.4165 87.3686 65.8076 87.5774C66.1987 87.7829 66.502 88.0994 66.7174 88.527C66.9362 88.9512 67.0455 89.4915 67.0455 90.1477V95H65.8722V90.2273C65.8722 89.6207 65.7148 89.1518 65.3999 88.8203C65.0884 88.4856 64.6559 88.3182 64.1024 88.3182C63.7179 88.3182 63.3732 88.3994 63.0683 88.5618C62.7667 88.7242 62.528 88.9612 62.3524 89.2727C62.18 89.5843 62.0938 89.9621 62.0938 90.4062ZM72.2943 95.1591C71.6049 95.1591 71 94.995 70.4797 94.6669C69.9626 94.3388 69.5583 93.8797 69.2666 93.2898C68.9782 92.6998 68.8341 92.0104 68.8341 91.2216C68.8341 90.4261 68.9782 89.7318 69.2666 89.1385C69.5583 88.5452 69.9626 88.0845 70.4797 87.7564C71 87.4283 71.6049 87.2642 72.2943 87.2642C72.9837 87.2642 73.5869 87.4283 74.104 87.7564C74.6243 88.0845 75.0287 88.5452 75.317 89.1385C75.6087 89.7318 75.7545 90.4261 75.7545 91.2216C75.7545 92.0104 75.6087 92.6998 75.317 93.2898C75.0287 93.8797 74.6243 94.3388 74.104 94.6669C73.5869 94.995 72.9837 95.1591 72.2943 95.1591ZM72.2943 94.1051C72.818 94.1051 73.2488 93.9709 73.5869 93.7024C73.925 93.4339 74.1752 93.081 74.3376 92.6435C74.5 92.206 74.5812 91.732 74.5812 91.2216C74.5812 90.7112 74.5 90.2356 74.3376 89.7947C74.1752 89.3539 73.925 88.9976 73.5869 88.7259C73.2488 88.4541 72.818 88.3182 72.2943 88.3182C71.7706 88.3182 71.3398 88.4541 71.0017 88.7259C70.6636 88.9976 70.4134 89.3539 70.251 89.7947C70.0886 90.2356 70.0074 90.7112 70.0074 91.2216C70.0074 91.732 70.0886 92.206 70.251 92.6435C70.4134 93.081 70.6636 93.4339 71.0017 93.7024C71.3398 93.9709 71.7706 94.1051 72.2943 94.1051ZM80.8666 87.3636V88.358H76.9092V87.3636H80.8666ZM78.0626 85.5341H79.2359V92.8125C79.2359 93.1439 79.2839 93.3925 79.3801 93.5582C79.4795 93.7206 79.6054 93.83 79.7579 93.8864C79.9137 93.9394 80.0777 93.9659 80.2501 93.9659C80.3794 93.9659 80.4854 93.9593 80.5683 93.946C80.6511 93.9295 80.7174 93.9162 80.7671 93.9062L81.0058 94.9602C80.9262 94.9901 80.8152 95.0199 80.6727 95.0497C80.5302 95.0829 80.3495 95.0994 80.1308 95.0994C79.7993 95.0994 79.4745 95.0282 79.1563 94.8857C78.8415 94.7431 78.5796 94.526 78.3708 94.2344C78.1653 93.9427 78.0626 93.5748 78.0626 93.1307V85.5341ZM85.6517 95.1591C84.9623 95.1591 84.3575 94.995 83.8371 94.6669C83.32 94.3388 82.9157 93.8797 82.624 93.2898C82.3357 92.6998 82.1915 92.0104 82.1915 91.2216C82.1915 90.4261 82.3357 89.7318 82.624 89.1385C82.9157 88.5452 83.32 88.0845 83.8371 87.7564C84.3575 87.4283 84.9623 87.2642 85.6517 87.2642C86.3411 87.2642 86.9443 87.4283 87.4614 87.7564C87.9817 88.0845 88.3861 88.5452 88.6744 89.1385C88.9661 89.7318 89.1119 90.4261 89.1119 91.2216C89.1119 92.0104 88.9661 92.6998 88.6744 93.2898C88.3861 93.8797 87.9817 94.3388 87.4614 94.6669C86.9443 94.995 86.3411 95.1591 85.6517 95.1591ZM85.6517 94.1051C86.1754 94.1051 86.6063 93.9709 86.9443 93.7024C87.2824 93.4339 87.5326 93.081 87.695 92.6435C87.8575 92.206 87.9387 91.732 87.9387 91.2216C87.9387 90.7112 87.8575 90.2356 87.695 89.7947C87.5326 89.3539 87.2824 88.9976 86.9443 88.7259C86.6063 88.4541 86.1754 88.3182 85.6517 88.3182C85.128 88.3182 84.6972 88.4541 84.3591 88.7259C84.021 88.9976 83.7708 89.3539 83.6084 89.7947C83.446 90.2356 83.3648 90.7112 83.3648 91.2216C83.3648 91.732 83.446 92.206 83.6084 92.6435C83.7708 93.081 84.021 93.4339 84.3591 93.7024C84.6972 93.9709 85.128 94.1051 85.6517 94.1051Z" fill="black"/>
<path d="M21.8215 95V95.2H21.9627L22.0099 95.0669L21.8215 95ZM20.5289 95L20.3411 94.9311L20.2424 95.2H20.5289V95ZM24.2675 84.8182V84.6182H24.1279L24.0797 84.7492L24.2675 84.8182ZM25.5402 84.8182L25.728 84.7492L25.6798 84.6182H25.5402V84.8182ZM29.2789 95V95.2H29.5653L29.4666 94.9311L29.2789 95ZM27.9862 95L27.7978 95.0669L27.845 95.2H27.9862V95ZM24.9436 86.429L25.1321 86.3621L25.0849 86.229H24.9436V86.429ZM24.8641 86.429V86.229H24.7229L24.6756 86.3621L24.8641 86.429ZM22.2987 91.0227V90.8227H22.0987V91.0227H22.2987ZM27.509 91.0227H27.709V90.8227H27.509V91.0227ZM27.509 92.1165V92.3165H27.709V92.1165H27.509ZM22.2987 92.1165H22.0987V92.3165H22.2987V92.1165ZM21.8215 94.8H20.5289V95.2H21.8215V94.8ZM20.7166 95.0689L24.4552 84.8871L24.0797 84.7492L20.3411 94.9311L20.7166 95.0689ZM24.2675 85.0182H25.5402V84.6182H24.2675V85.0182ZM25.3525 84.8871L29.0911 95.0689L29.4666 94.9311L25.728 84.7492L25.3525 84.8871ZM29.2789 94.8H27.9862V95.2H29.2789V94.8ZM28.1747 94.9331L25.1321 86.3621L24.7551 86.4959L27.7978 95.0669L28.1747 94.9331ZM24.9436 86.229H24.8641V86.629H24.9436V86.229ZM24.6756 86.3621L21.633 94.9331L22.0099 95.0669L25.0526 86.4959L24.6756 86.3621ZM22.2987 91.2227H27.509V90.8227H22.2987V91.2227ZM27.309 91.0227V92.1165H27.709V91.0227H27.309ZM27.509 91.9165H22.2987V92.3165H27.509V91.9165ZM22.4987 92.1165V91.0227H22.0987V92.1165H22.4987ZM31.9039 94.6768L31.7929 94.8433L31.7937 94.8438L31.9039 94.6768ZM30.7604 93.3047L30.5789 93.3888L30.5791 93.3892L30.7604 93.3047ZM30.7604 89.1136L30.5791 89.0291L30.5791 89.0291L30.7604 89.1136ZM31.9088 87.7464L31.7992 87.5792L31.7992 87.5792L31.9088 87.7464ZM34.7874 87.5128L34.6877 87.6862L34.6901 87.6875L34.7874 87.5128ZM35.4536 88.0696L35.292 88.1876L35.2942 88.1904L35.4536 88.0696ZM35.8165 88.5767L35.6488 88.6857L35.708 88.7767H35.8165V88.5767ZM35.9159 88.5767V88.7767H36.1159V88.5767H35.9159ZM35.9159 84.8182V84.6182H35.7159V84.8182H35.9159ZM37.0892 84.8182H37.2892V84.6182H37.0892V84.8182ZM37.0892 95V95.2H37.2892V95H37.0892ZM35.9557 95H35.7557V95.2H35.9557V95ZM35.9557 93.8267H36.1557V93.6267H35.9557V93.8267ZM35.8165 93.8267V93.6267H35.7051L35.6464 93.7214L35.8165 93.8267ZM35.4486 94.3537L35.6077 94.4749L35.6086 94.4737L35.4486 94.3537ZM34.7675 94.9155L34.864 95.0907L34.8654 95.0899L34.7675 94.9155ZM34.9415 93.7372L35.062 93.8968L35.063 93.896L34.9415 93.7372ZM35.6823 92.7081L35.8688 92.7802L35.869 92.7797L35.6823 92.7081ZM35.6872 89.6854L35.5006 89.7572L35.5008 89.7576L35.6872 89.6854ZM34.9514 88.6811L34.832 88.8415L34.833 88.8423L34.9514 88.6811ZM32.5054 88.701L32.6272 88.8596L32.6274 88.8595L32.5054 88.701ZM31.7646 89.7301L31.5778 89.6588L31.5775 89.6596L31.7646 89.7301ZM31.7696 92.6634L31.5822 92.7333L31.5829 92.735L31.7696 92.6634ZM32.5154 93.7173L32.3906 93.8737L32.3924 93.875L32.5154 93.7173ZM33.5892 94.9591C32.9883 94.9591 32.4656 94.8079 32.014 94.5099L31.7937 94.8438C32.3165 95.1888 32.9174 95.3591 33.5892 95.3591V94.9591ZM32.0148 94.5104C31.5614 94.2082 31.203 93.7807 30.9416 93.2202L30.5791 93.3892C30.8679 94.0086 31.2719 94.4959 31.7929 94.8433L32.0148 94.5104ZM30.9418 93.2206C30.6815 92.6591 30.5477 91.9881 30.5477 91.2017H30.1477C30.1477 92.0328 30.2891 92.7637 30.5789 93.3888L30.9418 93.2206ZM30.5477 91.2017C30.5477 90.4222 30.6814 89.7562 30.9416 89.1982L30.5791 89.0291C30.2892 89.651 30.1477 90.377 30.1477 91.2017H30.5477ZM30.9416 89.1982C31.2028 88.6381 31.5624 88.2126 32.0185 87.9137L31.7992 87.5792C31.2742 87.9233 30.8682 88.4093 30.5791 89.0291L30.9416 89.1982ZM32.0185 87.9137C32.4733 87.6156 33.0012 87.4642 33.6091 87.4642V87.0642C32.9311 87.0642 32.3254 87.2343 31.7992 87.5792L32.0185 87.9137ZM33.6091 87.4642C34.0873 87.4642 34.4411 87.5444 34.6877 87.6862L34.887 87.3394C34.557 87.1497 34.1252 87.0642 33.6091 87.0642V87.4642ZM34.6901 87.6875C34.9636 87.8398 35.1608 88.0078 35.292 88.1875L35.6151 87.9517C35.4414 87.7137 35.1945 87.5106 34.8847 87.338L34.6901 87.6875ZM35.2942 88.1904C35.4486 88.3941 35.5664 88.5589 35.6488 88.6857L35.9842 88.4677C35.8943 88.3294 35.7701 88.156 35.613 87.9488L35.2942 88.1904ZM35.8165 88.7767H35.9159V88.3767H35.8165V88.7767ZM36.1159 88.5767V84.8182H35.7159V88.5767H36.1159ZM35.9159 85.0182H37.0892V84.6182H35.9159V85.0182ZM36.8892 84.8182V95H37.2892V84.8182H36.8892ZM37.0892 94.8H35.9557V95.2H37.0892V94.8ZM36.1557 95V93.8267H35.7557V95H36.1557ZM35.9557 93.6267H35.8165V94.0267H35.9557V93.6267ZM35.6464 93.7214C35.5647 93.8535 35.446 94.0238 35.2886 94.2337L35.6086 94.4737C35.7694 94.2593 35.8959 94.0783 35.9865 93.932L35.6464 93.7214ZM35.2895 94.2325C35.151 94.4143 34.9473 94.5851 34.6695 94.7411L34.8654 95.0899C35.1776 94.9145 35.428 94.7107 35.6077 94.4749L35.2895 94.2325ZM34.671 94.7403C34.416 94.8807 34.0604 94.9591 33.5892 94.9591V95.3591C34.0991 95.3591 34.529 95.2751 34.8639 95.0907L34.671 94.7403ZM33.7483 94.3051C34.2554 94.3051 34.6972 94.1723 35.062 93.8968L34.821 93.5776C34.5361 93.7927 34.1825 93.9051 33.7483 93.9051V94.3051ZM35.063 93.896C35.4212 93.622 35.6885 93.2469 35.8688 92.7802L35.4957 92.636C35.338 93.0443 35.1114 93.3553 34.8199 93.5784L35.063 93.896ZM35.869 92.7797C36.0485 92.3116 36.1358 91.7777 36.1358 91.1818H35.7358C35.7358 91.7393 35.6541 92.223 35.4955 92.6365L35.869 92.7797ZM36.1358 91.1818C36.1358 90.5928 36.0503 90.0685 35.8737 89.6131L35.5008 89.7576C35.6557 90.1573 35.7358 90.6307 35.7358 91.1818H36.1358ZM35.8739 89.6136C35.6965 89.1523 35.4298 88.7844 35.0699 88.5199L34.833 88.8423C35.1227 89.0551 35.3465 89.3567 35.5006 89.7572L35.8739 89.6136ZM35.0709 88.5207C34.7057 88.2487 34.2607 88.1182 33.7483 88.1182V88.5182C34.1905 88.5182 34.5475 88.6296 34.832 88.8415L35.0709 88.5207ZM33.7483 88.1182C33.2156 88.1182 32.7561 88.2556 32.3834 88.5425L32.6274 88.8595C32.9176 88.636 33.2867 88.5182 33.7483 88.5182V88.1182ZM32.3836 88.5424C32.0226 88.8195 31.755 89.1944 31.5778 89.6588L31.9515 89.8014C32.1057 89.3974 32.3319 89.0863 32.6272 88.8596L32.3836 88.5424ZM31.5775 89.6596C31.4053 90.1164 31.321 90.6247 31.321 91.1818H31.721C31.721 90.6651 31.7992 90.2056 31.9518 89.8007L31.5775 89.6596ZM31.321 91.1818C31.321 91.7458 31.407 92.2638 31.5822 92.7333L31.957 92.5934C31.8008 92.1747 31.721 91.705 31.721 91.1818H31.321ZM31.5829 92.735C31.763 93.2048 32.0313 93.5869 32.3906 93.8737L32.6401 93.561C32.3432 93.324 32.1143 93.0035 31.9564 92.5917L31.5829 92.735ZM32.3924 93.875C32.7646 94.1654 33.221 94.3051 33.7483 94.3051V93.9051C33.2946 93.9051 32.929 93.7863 32.6384 93.5596L32.3924 93.875ZM40.5992 94.6768L40.4882 94.8433L40.489 94.8438L40.5992 94.6768ZM39.4557 93.3047L39.2743 93.3888L39.2744 93.3892L39.4557 93.3047ZM39.4557 89.1136L39.2744 89.0291L39.2744 89.0291L39.4557 89.1136ZM40.6041 87.7464L40.4945 87.5792L40.4945 87.5792L40.6041 87.7464ZM43.4827 87.5128L43.383 87.6862L43.3854 87.6875L43.4827 87.5128ZM44.1489 88.0696L43.9873 88.1876L43.9895 88.1904L44.1489 88.0696ZM44.5118 88.5767L44.3441 88.6857L44.4033 88.7767H44.5118V88.5767ZM44.6112 88.5767V88.7767H44.8112V88.5767H44.6112ZM44.6112 84.8182V84.6182H44.4112V84.8182H44.6112ZM45.7845 84.8182H45.9845V84.6182H45.7845V84.8182ZM45.7845 95V95.2H45.9845V95H45.7845ZM44.651 95H44.451V95.2H44.651V95ZM44.651 93.8267H44.851V93.6267H44.651V93.8267ZM44.5118 93.8267V93.6267H44.4004L44.3418 93.7214L44.5118 93.8267ZM44.1439 94.3537L44.303 94.4749L44.3039 94.4737L44.1439 94.3537ZM43.4628 94.9155L43.5593 95.0907L43.5608 95.0899L43.4628 94.9155ZM43.6368 93.7372L43.7573 93.8968L43.7584 93.896L43.6368 93.7372ZM44.3776 92.7081L44.5641 92.7802L44.5643 92.7797L44.3776 92.7081ZM44.3825 89.6854L44.1959 89.7572L44.1961 89.7576L44.3825 89.6854ZM43.6468 88.6811L43.5273 88.8415L43.5283 88.8423L43.6468 88.6811ZM41.2007 88.701L41.3225 88.8596L41.3227 88.8595L41.2007 88.701ZM40.46 89.7301L40.2731 89.6588L40.2728 89.6596L40.46 89.7301ZM40.4649 92.6634L40.2775 92.7333L40.2782 92.735L40.4649 92.6634ZM41.2107 93.7173L41.0859 93.8737L41.0877 93.875L41.2107 93.7173ZM42.2845 94.9591C41.6837 94.9591 41.1609 94.8079 40.7093 94.5099L40.489 94.8438C41.0119 95.1888 41.6127 95.3591 42.2845 95.3591V94.9591ZM40.7101 94.5104C40.2567 94.2082 39.8983 93.7807 39.637 93.2202L39.2744 93.3892C39.5632 94.0086 39.9672 94.4959 40.4882 94.8433L40.7101 94.5104ZM39.6371 93.2206C39.3768 92.6591 39.2431 91.9881 39.2431 91.2017H38.8431C38.8431 92.0328 38.9844 92.7637 39.2743 93.3888L39.6371 93.2206ZM39.2431 91.2017C39.2431 90.4222 39.3767 89.7562 39.637 89.1982L39.2744 89.0291C38.9845 89.651 38.8431 90.377 38.8431 91.2017H39.2431ZM39.637 89.1982C39.8981 88.6381 40.2577 88.2126 40.7138 87.9137L40.4945 87.5792C39.9695 87.9233 39.5635 88.4093 39.2744 89.0291L39.637 89.1982ZM40.7138 87.9137C41.1686 87.6156 41.6965 87.4642 42.3044 87.4642V87.0642C41.6264 87.0642 41.0207 87.2343 40.4945 87.5792L40.7138 87.9137ZM42.3044 87.4642C42.7826 87.4642 43.1364 87.5444 43.383 87.6862L43.5823 87.3394C43.2523 87.1497 42.8205 87.0642 42.3044 87.0642V87.4642ZM43.3854 87.6875C43.6589 87.8398 43.8561 88.0078 43.9874 88.1875L44.3104 87.9517C44.1367 87.7137 43.8898 87.5106 43.58 87.338L43.3854 87.6875ZM43.9895 88.1904C44.1439 88.3941 44.2617 88.5589 44.3441 88.6857L44.6795 88.4677C44.5896 88.3294 44.4654 88.156 44.3083 87.9488L43.9895 88.1904ZM44.5118 88.7767H44.6112V88.3767H44.5118V88.7767ZM44.8112 88.5767V84.8182H44.4112V88.5767H44.8112ZM44.6112 85.0182H45.7845V84.6182H44.6112V85.0182ZM45.5845 84.8182V95H45.9845V84.8182H45.5845ZM45.7845 94.8H44.651V95.2H45.7845V94.8ZM44.851 95V93.8267H44.451V95H44.851ZM44.651 93.6267H44.5118V94.0267H44.651V93.6267ZM44.3418 93.7214C44.26 93.8535 44.1413 94.0238 43.9839 94.2337L44.3039 94.4737C44.4647 94.2593 44.5912 94.0783 44.6819 93.932L44.3418 93.7214ZM43.9848 94.2325C43.8463 94.4143 43.6426 94.5851 43.3648 94.7411L43.5608 95.0899C43.8729 94.9145 44.1233 94.7107 44.303 94.4749L43.9848 94.2325ZM43.3663 94.7403C43.1114 94.8807 42.7557 94.9591 42.2845 94.9591V95.3591C42.7944 95.3591 43.2243 95.2751 43.5593 95.0907L43.3663 94.7403ZM42.4436 94.3051C42.9507 94.3051 43.3926 94.1723 43.7573 93.8968L43.5163 93.5776C43.2314 93.7927 42.8779 93.9051 42.4436 93.9051V94.3051ZM43.7584 93.896C44.1165 93.622 44.3838 93.2469 44.5641 92.7802L44.191 92.636C44.0333 93.0443 43.8067 93.3553 43.5153 93.5784L43.7584 93.896ZM44.5643 92.7797C44.7438 92.3116 44.8311 91.7777 44.8311 91.1818H44.4311C44.4311 91.7393 44.3494 92.223 44.1908 92.6365L44.5643 92.7797ZM44.8311 91.1818C44.8311 90.5928 44.7456 90.0685 44.569 89.6131L44.1961 89.7576C44.351 90.1573 44.4311 90.6307 44.4311 91.1818H44.8311ZM44.5692 89.6136C44.3918 89.1523 44.1251 88.7844 43.7652 88.5199L43.5283 88.8423C43.818 89.0551 44.0418 89.3567 44.1959 89.7572L44.5692 89.6136ZM43.7662 88.5207C43.401 88.2487 42.956 88.1182 42.4436 88.1182V88.5182C42.8858 88.5182 43.2429 88.6296 43.5273 88.8415L43.7662 88.5207ZM42.4436 88.1182C41.9109 88.1182 41.4514 88.2556 41.0787 88.5425L41.3227 88.8595C41.613 88.636 41.982 88.5182 42.4436 88.5182V88.1182ZM41.0789 88.5424C40.718 88.8195 40.4503 89.1944 40.2731 89.6588L40.6468 89.8014C40.801 89.3974 41.0272 89.0863 41.3225 88.8596L41.0789 88.5424ZM40.2728 89.6596C40.1006 90.1164 40.0164 90.6247 40.0164 91.1818H40.4164C40.4164 90.6651 40.4945 90.2056 40.6471 89.8007L40.2728 89.6596ZM40.0164 91.1818C40.0164 91.7458 40.1024 92.2638 40.2776 92.7333L40.6523 92.5934C40.4961 92.1747 40.4164 91.705 40.4164 91.1818H40.0164ZM40.2782 92.735C40.4584 93.2048 40.7266 93.5869 41.0859 93.8737L41.3354 93.561C41.0385 93.324 40.8096 93.0035 40.6517 92.5917L40.2782 92.735ZM41.0877 93.875C41.4599 94.1654 41.9163 94.3051 42.4436 94.3051V93.9051C41.9899 93.9051 41.6243 93.7863 41.3337 93.5596L41.0877 93.875ZM52.1929 95H51.9929V95.2H52.1929V95ZM52.1929 84.8182V84.6182H51.9929V84.8182H52.1929ZM57.5921 85.2507L57.4932 85.4246L57.4945 85.4253L57.5921 85.2507ZM58.7256 86.4091L58.5469 86.499L58.5469 86.499L58.7256 86.4091ZM58.7256 89.6754L58.5467 89.586L58.5462 89.587L58.7256 89.6754ZM57.602 90.8487L57.7009 91.0226L57.7017 91.0221L57.602 90.8487ZM53.1872 91.2812H52.9872V91.4813H53.1872V91.2812ZM53.1872 90.1875V89.9875H52.9872V90.1875H53.1872ZM56.9308 89.9041L56.8318 89.7304L56.8318 89.7304L56.9308 89.9041ZM57.6517 89.1385L57.4707 89.0535L57.4703 89.0543L57.6517 89.1385ZM57.6517 86.946L57.4703 87.0302L57.471 87.0317L57.6517 86.946ZM56.9259 86.1903L56.8289 86.3653L56.8302 86.366L56.9259 86.1903ZM53.4259 85.9119V85.7119H53.2259V85.9119H53.4259ZM53.4259 95V95.2H53.6259V95H53.4259ZM52.3929 95V84.8182H51.9929V95H52.3929ZM52.1929 85.0182H55.6333V84.6182H52.1929V85.0182ZM55.6333 85.0182C56.4096 85.0182 57.0253 85.1585 57.4932 85.4246L57.6909 85.0769C57.1446 84.7662 56.4544 84.6182 55.6333 84.6182V85.0182ZM57.4945 85.4253C57.9727 85.6923 58.321 86.0501 58.5469 86.499L58.9042 86.3192C58.6397 85.7936 58.2323 85.3791 57.6896 85.0761L57.4945 85.4253ZM58.5469 86.499C58.7768 86.9556 58.8935 87.4679 58.8935 88.0398H59.2935C59.2935 87.4118 59.1649 86.837 58.9042 86.3192L58.5469 86.499ZM58.8935 88.0398C58.8935 88.6116 58.7768 89.1258 58.5467 89.586L58.9045 89.7649C59.1649 89.244 59.2935 88.6678 59.2935 88.0398H58.8935ZM58.5462 89.587C58.3231 90.0394 57.9775 90.402 57.5023 90.6754L57.7017 91.0221C58.2407 90.7121 58.6442 90.2925 58.905 89.7639L58.5462 89.587ZM57.5031 90.6749C57.0351 90.941 56.4225 91.0812 55.6531 91.0812V91.4813C56.468 91.4813 57.1547 91.3331 57.7009 91.0226L57.5031 90.6749ZM55.6531 91.0812H53.1872V91.4813H55.6531V91.0812ZM53.3872 91.2812V90.1875H52.9872V91.2812H53.3872ZM53.1872 90.3875H55.6134V89.9875H53.1872V90.3875ZM55.6134 90.3875C56.1808 90.3875 56.658 90.2899 57.0299 90.0779L56.8318 89.7304C56.5408 89.8962 56.1397 89.9875 55.6134 89.9875V90.3875ZM57.0299 90.0779C57.3945 89.87 57.6652 89.5848 57.8331 89.2227L57.4703 89.0543C57.34 89.3352 57.1301 89.5604 56.8318 89.7304L57.0299 90.0779ZM57.8328 89.2235C57.9993 88.8687 58.0804 88.4728 58.0804 88.0398H57.6804C57.6804 88.4221 57.6091 88.7587 57.4707 89.0535L57.8328 89.2235ZM58.0804 88.0398C58.0804 87.6068 57.9993 87.2123 57.8324 86.8603L57.471 87.0317C57.609 87.3228 57.6804 87.6574 57.6804 88.0398H58.0804ZM57.8331 86.8619C57.6646 86.4985 57.3909 86.2159 57.0215 86.0147L56.8302 86.366C57.1303 86.5294 57.3406 86.7506 57.4703 87.0302L57.8331 86.8619ZM57.0229 86.0154C56.6481 85.8076 56.1668 85.7119 55.5935 85.7119V86.1119C56.1272 86.1119 56.5341 86.2018 56.8289 86.3653L57.0229 86.0154ZM55.5935 85.7119H53.4259V86.1119H55.5935V85.7119ZM53.2259 85.9119V95H53.6259V85.9119H53.2259ZM53.4259 94.8H52.1929V95.2H53.4259V94.8ZM62.0938 95V95.2H62.2938V95H62.0938ZM60.9205 95H60.7205V95.2H60.9205V95ZM60.9205 84.8182V84.6182H60.7205V84.8182H60.9205ZM62.0938 84.8182H62.2938V84.6182H62.0938V84.8182ZM62.0938 88.5568H61.8938V88.7568H62.0938V88.5568ZM62.1933 88.5568V88.7568H62.3221L62.3754 88.6395L62.1933 88.5568ZM62.9987 87.6172L63.1074 87.785L63.1078 87.7848L62.9987 87.6172ZM65.8076 87.5774L65.7134 87.7538L65.7146 87.7545L65.8076 87.5774ZM66.7174 88.527L66.5388 88.617L66.5397 88.6186L66.7174 88.527ZM67.0455 95V95.2H67.2455V95H67.0455ZM65.8722 95H65.6722V95.2H65.8722V95ZM65.3999 88.8203L65.2535 88.9566L65.2549 88.9581L65.3999 88.8203ZM63.0683 88.5618L62.9743 88.3853L62.9735 88.3857L63.0683 88.5618ZM62.3524 89.2727L62.1781 89.1745L62.1774 89.1759L62.3524 89.2727ZM61.8938 90.4062V95H62.2938V90.4062H61.8938ZM62.0938 94.8H60.9205V95.2H62.0938V94.8ZM61.1205 95V84.8182H60.7205V95H61.1205ZM60.9205 85.0182H62.0938V84.6182H60.9205V85.0182ZM61.8938 84.8182V88.5568H62.2938V84.8182H61.8938ZM62.0938 88.7568H62.1933V88.3568H62.0938V88.7568ZM62.3754 88.6395C62.5388 88.2793 62.7821 87.9959 63.1074 87.785L62.8899 87.4494C62.4993 87.7025 62.2057 88.0455 62.0111 88.4742L62.3754 88.6395ZM63.1078 87.7848C63.4262 87.5774 63.8647 87.4642 64.4404 87.4642V87.0642C63.8164 87.0642 63.2936 87.1864 62.8895 87.4496L63.1078 87.7848ZM64.4404 87.4642C64.9336 87.4642 65.356 87.563 65.7134 87.7538L65.9018 87.401C65.4771 87.1742 64.9879 87.0642 64.4404 87.0642V87.4642ZM65.7146 87.7545C66.0657 87.9389 66.3405 88.2234 66.5388 88.617L66.896 88.437C66.6635 87.9755 66.3318 87.6269 65.9006 87.4004L65.7146 87.7545ZM66.5397 88.6186C66.7394 89.0059 66.8455 89.512 66.8455 90.1477H67.2455C67.2455 89.4709 67.133 88.8965 66.8952 88.4353L66.5397 88.6186ZM66.8455 90.1477V95H67.2455V90.1477H66.8455ZM67.0455 94.8H65.8722V95.2H67.0455V94.8ZM66.0722 95V90.2273H65.6722V95H66.0722ZM66.0722 90.2273C66.0722 89.5867 65.9054 89.062 65.5449 88.6826L65.2549 88.9581C65.5242 89.2415 65.6722 89.6548 65.6722 90.2273H66.0722ZM65.5464 88.6841C65.1891 88.3003 64.6988 88.1182 64.1024 88.1182V88.5182C64.6129 88.5182 64.9876 88.6709 65.2535 88.9566L65.5464 88.6841ZM64.1024 88.1182C63.6889 88.1182 63.3113 88.2058 62.9743 88.3853L63.1623 88.7383C63.4351 88.593 63.7469 88.5182 64.1024 88.5182V88.1182ZM62.9735 88.3857C62.637 88.5668 62.3715 88.8315 62.1781 89.1745L62.5266 89.371C62.6845 89.0908 62.8963 88.8815 63.1631 88.7379L62.9735 88.3857ZM62.1774 89.1759C61.985 89.5236 61.8938 89.9365 61.8938 90.4062H62.2938C62.2938 89.9877 62.375 89.645 62.5274 89.3695L62.1774 89.1759ZM70.4797 94.6669L70.3725 94.8358L70.373 94.8361L70.4797 94.6669ZM69.2666 93.2898L69.0869 93.3776L69.0873 93.3784L69.2666 93.2898ZM69.2666 89.1385L69.0871 89.0503L69.0867 89.0511L69.2666 89.1385ZM70.4797 87.7564L70.373 87.5872L70.3725 87.5875L70.4797 87.7564ZM74.104 87.7564L73.9968 87.9253L73.9973 87.9256L74.104 87.7564ZM75.317 89.1385L75.1371 89.2259L75.1375 89.2267L75.317 89.1385ZM75.317 93.2898L75.1377 93.2011L75.1373 93.2019L75.317 93.2898ZM74.104 94.6669L73.9973 94.4977L73.9968 94.498L74.104 94.6669ZM73.5869 93.7024L73.4625 93.5458L73.4625 93.5458L73.5869 93.7024ZM74.3376 92.6435L74.5251 92.7131L74.5251 92.7131L74.3376 92.6435ZM74.3376 89.7947L74.5253 89.7256L74.5253 89.7256L74.3376 89.7947ZM73.5869 88.7259L73.7122 88.57L73.7122 88.57L73.5869 88.7259ZM71.0017 88.7259L70.8764 88.57L70.8764 88.57L71.0017 88.7259ZM70.251 89.7947L70.0633 89.7256L70.0633 89.7256L70.251 89.7947ZM70.251 92.6435L70.0635 92.7131L70.0635 92.7131L70.251 92.6435ZM71.0017 93.7024L71.1261 93.5458L71.1261 93.5458L71.0017 93.7024ZM72.2943 94.9591C71.638 94.9591 71.071 94.8034 70.5863 94.4977L70.373 94.8361C70.929 95.1867 71.5718 95.3591 72.2943 95.3591V94.9591ZM70.5868 94.498C70.103 94.191 69.7226 93.7608 69.4459 93.2011L69.0873 93.3784C69.394 93.9987 69.8222 94.4865 70.3725 94.8358L70.5868 94.498ZM69.4463 93.2019C69.1737 92.6443 69.0341 91.986 69.0341 91.2216H68.6341C68.6341 92.0348 68.7828 92.7553 69.0869 93.3776L69.4463 93.2019ZM69.0341 91.2216C69.0341 90.4503 69.1738 89.7869 69.4465 89.2259L69.0867 89.0511C68.7827 89.6766 68.6341 90.402 68.6341 91.2216H69.0341ZM69.4461 89.2267C69.7229 88.6637 70.1033 88.2321 70.5868 87.9253L70.3725 87.5875C69.8219 87.9369 69.3937 88.4267 69.0871 89.0503L69.4461 89.2267ZM70.5863 87.9256C71.071 87.6199 71.638 87.4642 72.2943 87.4642V87.0642C71.5718 87.0642 70.929 87.2366 70.373 87.5872L70.5863 87.9256ZM72.2943 87.4642C72.9507 87.4642 73.5157 87.62 73.9968 87.9253L74.2111 87.5875C73.6581 87.2366 73.0167 87.0642 72.2943 87.0642V87.4642ZM73.9973 87.9256C74.4838 88.2324 74.8639 88.6637 75.1371 89.2259L75.4969 89.0511C75.1935 88.4268 74.7648 87.9367 74.2106 87.5872L73.9973 87.9256ZM75.1375 89.2267C75.4132 89.7875 75.5545 90.4506 75.5545 91.2216H75.9545C75.9545 90.4017 75.8041 89.676 75.4965 89.0503L75.1375 89.2267ZM75.5545 91.2216C75.5545 91.9857 75.4133 92.6437 75.1377 93.2011L75.4963 93.3784C75.8041 92.7559 75.9545 92.0351 75.9545 91.2216H75.5545ZM75.1373 93.2019C74.8642 93.7609 74.4841 94.1908 73.9973 94.4977L74.2106 94.8361C74.7646 94.4868 75.1932 93.9986 75.4967 93.3776L75.1373 93.2019ZM73.9968 94.498C73.5157 94.8033 72.9507 94.9591 72.2943 94.9591V95.3591C73.0167 95.3591 73.6581 95.1867 74.2111 94.8358L73.9968 94.498ZM72.2943 94.3051C72.8532 94.3051 73.3308 94.1612 73.7113 93.859L73.4625 93.5458C73.1669 93.7806 72.7827 93.9051 72.2943 93.9051V94.3051ZM73.7113 93.859C74.0803 93.566 74.3511 93.1819 74.5251 92.7131L74.1501 92.5739C73.9994 92.98 73.7697 93.3019 73.4625 93.5458L73.7113 93.859ZM74.5251 92.7131C74.6965 92.2513 74.7812 91.7535 74.7812 91.2216H74.3812C74.3812 91.7105 74.3035 92.1606 74.1501 92.5739L74.5251 92.7131ZM74.7812 91.2216C74.7812 90.6896 74.6965 90.1904 74.5253 89.7256L74.15 89.8639C74.3035 90.2807 74.3812 90.7327 74.3812 91.2216H74.7812ZM74.5253 89.7256C74.3514 89.2537 74.0809 88.8664 73.7122 88.57L73.4616 88.8817C73.7691 89.1289 73.999 89.4542 74.15 89.8639L74.5253 89.7256ZM73.7122 88.57C73.3317 88.2641 72.8538 88.1182 72.2943 88.1182V88.5182C72.7822 88.5182 73.166 88.6441 73.4616 88.8817L73.7122 88.57ZM72.2943 88.1182C71.7348 88.1182 71.2569 88.2641 70.8764 88.57L71.127 88.8817C71.4226 88.6441 71.8064 88.5182 72.2943 88.5182V88.1182ZM70.8764 88.57C70.5077 88.8664 70.2372 89.2537 70.0633 89.7256L70.4386 89.8639C70.5896 89.4542 70.8195 89.1289 71.127 88.8817L70.8764 88.57ZM70.0633 89.7256C69.8921 90.1904 69.8074 90.6896 69.8074 91.2216H70.2074C70.2074 90.7327 70.2851 90.2807 70.4386 89.8639L70.0633 89.7256ZM69.8074 91.2216C69.8074 91.7535 69.8921 92.2513 70.0635 92.7131L70.4385 92.5739C70.2851 92.1606 70.2074 91.7105 70.2074 91.2216H69.8074ZM70.0635 92.7131C70.2375 93.1819 70.5083 93.566 70.8773 93.859L71.1261 93.5458C70.8189 93.3019 70.5892 92.98 70.4385 92.5739L70.0635 92.7131ZM70.8773 93.859C71.2578 94.1612 71.7354 94.3051 72.2943 94.3051V93.9051C71.8059 93.9051 71.4217 93.7806 71.1261 93.5458L70.8773 93.859ZM80.8666 87.3636H81.0666V87.1636H80.8666V87.3636ZM80.8666 88.358V88.558H81.0666V88.358H80.8666ZM76.9092 88.358H76.7092V88.558H76.9092V88.358ZM76.9092 87.3636V87.1636H76.7092V87.3636H76.9092ZM78.0626 85.5341V85.3341H77.8626V85.5341H78.0626ZM79.2359 85.5341H79.4359V85.3341H79.2359V85.5341ZM79.3801 93.5582L79.207 93.6586L79.2095 93.6627L79.3801 93.5582ZM79.7579 93.8864L79.6885 94.074L79.6934 94.0757L79.7579 93.8864ZM80.5683 93.946L80.5999 94.1437L80.6075 94.1421L80.5683 93.946ZM80.7671 93.9062L80.9622 93.8621L80.9191 93.6719L80.7279 93.7101L80.7671 93.9062ZM81.0058 94.9602L81.076 95.1475L81.2394 95.0862L81.2008 94.9161L81.0058 94.9602ZM80.6727 95.0497L80.6317 94.8539L80.6274 94.8549L80.6727 95.0497ZM79.1563 94.8857L79.0739 95.0679L79.0746 95.0682L79.1563 94.8857ZM78.3708 94.2344L78.2073 94.3496L78.2082 94.3508L78.3708 94.2344ZM80.6666 87.3636V88.358H81.0666V87.3636H80.6666ZM80.8666 88.158H76.9092V88.558H80.8666V88.158ZM77.1092 88.358V87.3636H76.7092V88.358H77.1092ZM76.9092 87.5636H80.8666V87.1636H76.9092V87.5636ZM78.0626 85.7341H79.2359V85.3341H78.0626V85.7341ZM79.0359 85.5341V92.8125H79.4359V85.5341H79.0359ZM79.0359 92.8125C79.0359 93.1567 79.0846 93.4475 79.2071 93.6586L79.5531 93.4579C79.4832 93.3375 79.4359 93.1312 79.4359 92.8125H79.0359ZM79.2095 93.6627C79.3282 93.8565 79.487 93.9995 79.6886 94.074L79.8272 93.6988C79.7239 93.6606 79.6308 93.5848 79.5506 93.4538L79.2095 93.6627ZM79.6934 94.0757C79.8709 94.1361 80.0569 94.1659 80.2501 94.1659V93.7659C80.0986 93.7659 79.9564 93.7427 79.8224 93.697L79.6934 94.0757ZM80.2501 94.1659C80.3849 94.1659 80.5026 94.1591 80.5999 94.1435L80.5367 93.7485C80.4683 93.7595 80.3738 93.7659 80.2501 93.7659V94.1659ZM80.6075 94.1421C80.6904 94.1256 80.7566 94.1123 80.8064 94.1024L80.7279 93.7101C80.6782 93.7201 80.6119 93.7333 80.529 93.7499L80.6075 94.1421ZM80.5721 93.9504L80.8107 95.0044L81.2008 94.9161L80.9622 93.8621L80.5721 93.9504ZM80.9355 94.773C80.8699 94.7976 80.7702 94.825 80.6317 94.854L80.7136 95.2455C80.8602 95.2148 80.9826 95.1825 81.076 95.1475L80.9355 94.773ZM80.6274 94.8549C80.5051 94.8834 80.341 94.8994 80.1308 94.8994V95.2994C80.3581 95.2994 80.5552 95.2824 80.718 95.2445L80.6274 94.8549ZM80.1308 94.8994C79.829 94.8994 79.5319 94.8347 79.2381 94.7031L79.0746 95.0682C79.4171 95.2216 79.7697 95.2994 80.1308 95.2994V94.8994ZM79.2388 94.7034C78.9572 94.576 78.7226 94.3822 78.5334 94.118L78.2082 94.3508C78.4367 94.6699 78.7257 94.9103 79.0739 95.0679L79.2388 94.7034ZM78.5343 94.1192C78.3578 93.8687 78.2626 93.5438 78.2626 93.1307H77.8626C77.8626 93.6059 77.9728 94.0167 78.2073 94.3496L78.5343 94.1192ZM78.2626 93.1307V85.5341H77.8626V93.1307H78.2626ZM83.8371 94.6669L83.7299 94.8358L83.7304 94.8361L83.8371 94.6669ZM82.624 93.2898L82.4443 93.3776L82.4447 93.3784L82.624 93.2898ZM82.624 89.1385L82.4445 89.0503L82.4441 89.0511L82.624 89.1385ZM83.8371 87.7564L83.7304 87.5872L83.7299 87.5875L83.8371 87.7564ZM87.4614 87.7564L87.3542 87.9253L87.3547 87.9256L87.4614 87.7564ZM88.6744 89.1385L88.4946 89.2259L88.495 89.2267L88.6744 89.1385ZM88.6744 93.2898L88.4952 93.2011L88.4948 93.2019L88.6744 93.2898ZM87.4614 94.6669L87.3547 94.4977L87.3542 94.498L87.4614 94.6669ZM86.9443 93.7024L86.82 93.5458L86.82 93.5458L86.9443 93.7024ZM87.695 92.6435L87.8825 92.7131L87.8825 92.7131L87.695 92.6435ZM87.695 89.7947L87.8827 89.7256L87.8827 89.7256L87.695 89.7947ZM86.9443 88.7259L87.0696 88.57L87.0696 88.57L86.9443 88.7259ZM84.3591 88.7259L84.2338 88.57L84.2338 88.57L84.3591 88.7259ZM83.6084 89.7947L83.4207 89.7256L83.4207 89.7256L83.6084 89.7947ZM83.6084 92.6435L83.4209 92.7131L83.4209 92.7131L83.6084 92.6435ZM84.3591 93.7024L84.4835 93.5458L84.4835 93.5458L84.3591 93.7024ZM85.6517 94.9591C84.9954 94.9591 84.4284 94.8034 83.9438 94.4977L83.7304 94.8361C84.2865 95.1867 84.9293 95.3591 85.6517 95.3591V94.9591ZM83.9443 94.498C83.4605 94.191 83.08 93.7608 82.8033 93.2011L82.4447 93.3784C82.7514 93.9987 83.1796 94.4865 83.7299 94.8358L83.9443 94.498ZM82.8037 93.2019C82.5311 92.6443 82.3915 91.986 82.3915 91.2216H81.9915C81.9915 92.0348 82.1402 92.7553 82.4443 93.3776L82.8037 93.2019ZM82.3915 91.2216C82.3915 90.4503 82.5312 89.7869 82.8039 89.2259L82.4441 89.0511C82.1401 89.6766 81.9915 90.402 81.9915 91.2216H82.3915ZM82.8035 89.2267C83.0803 88.6637 83.4607 88.2321 83.9443 87.9253L83.7299 87.5875C83.1793 87.9369 82.7511 88.4267 82.4445 89.0503L82.8035 89.2267ZM83.9438 87.9256C84.4284 87.6199 84.9954 87.4642 85.6517 87.4642V87.0642C84.9293 87.0642 84.2865 87.2366 83.7304 87.5872L83.9438 87.9256ZM85.6517 87.4642C86.3081 87.4642 86.8731 87.62 87.3542 87.9253L87.5685 87.5875C87.0155 87.2366 86.3742 87.0642 85.6517 87.0642V87.4642ZM87.3547 87.9256C87.8412 88.2324 88.2213 88.6637 88.4946 89.2259L88.8543 89.0511C88.5509 88.4268 88.1223 87.9367 87.5681 87.5872L87.3547 87.9256ZM88.495 89.2267C88.7707 89.7875 88.9119 90.4506 88.9119 91.2216H89.3119C89.3119 90.4017 89.1616 89.676 88.8539 89.0503L88.495 89.2267ZM88.9119 91.2216C88.9119 91.9857 88.7708 92.6437 88.4952 93.2011L88.8537 93.3784C89.1615 92.7559 89.3119 92.0351 89.3119 91.2216H88.9119ZM88.4948 93.2019C88.2216 93.7609 87.8415 94.1908 87.3547 94.4977L87.5681 94.8361C88.122 94.4868 88.5506 93.9986 88.8541 93.3776L88.4948 93.2019ZM87.3542 94.498C86.8731 94.8033 86.3081 94.9591 85.6517 94.9591V95.3591C86.3742 95.3591 87.0155 95.1867 87.5685 94.8358L87.3542 94.498ZM85.6517 94.3051C86.2106 94.3051 86.6882 94.1612 87.0687 93.859L86.82 93.5458C86.5243 93.7806 86.1402 93.9051 85.6517 93.9051V94.3051ZM87.0687 93.859C87.4377 93.566 87.7085 93.1819 87.8825 92.7131L87.5075 92.5739C87.3568 92.98 87.1271 93.3019 86.82 93.5458L87.0687 93.859ZM87.8825 92.7131C88.054 92.2513 88.1387 91.7535 88.1387 91.2216H87.7387C87.7387 91.7105 87.6609 92.1606 87.5075 92.5739L87.8825 92.7131ZM88.1387 91.2216C88.1387 90.6896 88.054 90.1904 87.8827 89.7256L87.5074 89.8639C87.6609 90.2807 87.7387 90.7327 87.7387 91.2216H88.1387ZM87.8827 89.7256C87.7088 89.2537 87.4383 88.8664 87.0696 88.57L86.819 88.8817C87.1265 89.1289 87.3564 89.4542 87.5074 89.8639L87.8827 89.7256ZM87.0696 88.57C86.6891 88.2641 86.2112 88.1182 85.6517 88.1182V88.5182C86.1396 88.5182 86.5234 88.6441 86.819 88.8817L87.0696 88.57ZM85.6517 88.1182C85.0923 88.1182 84.6143 88.2641 84.2338 88.57L84.4844 88.8817C84.78 88.6441 85.1638 88.5182 85.6517 88.5182V88.1182ZM84.2338 88.57C83.8651 88.8664 83.5946 89.2537 83.4207 89.7256L83.7961 89.8639C83.947 89.4542 84.177 89.1289 84.4844 88.8817L84.2338 88.57ZM83.4207 89.7256C83.2495 90.1904 83.1648 90.6896 83.1648 91.2216H83.5648C83.5648 90.7327 83.6425 90.2807 83.7961 89.8639L83.4207 89.7256ZM83.1648 91.2216C83.1648 91.7535 83.2495 92.2513 83.4209 92.7131L83.7959 92.5739C83.6425 92.1606 83.5648 91.7105 83.5648 91.2216H83.1648ZM83.4209 92.7131C83.5949 93.1819 83.8658 93.566 84.2347 93.859L84.4835 93.5458C84.1763 93.3019 83.9467 92.98 83.7959 92.5739L83.4209 92.7131ZM84.2347 93.859C84.6152 94.1612 85.0928 94.3051 85.6517 94.3051V93.9051C85.1633 93.9051 84.7791 93.7806 84.4835 93.5458L84.2347 93.859Z" fill="black" mask="url(#path-1-outside-1_518_724)"/>
<g filter="url(#filter0_d_518_724)">
<rect x="0.1" y="0.1" width="109.8" height="159.8" rx="9.9" stroke="black" stroke-width="0.2" shape-rendering="crispEdges"/>
</g>
<path d="M53 71H55V67H59V65H55V61H53V65H49V67H53V71ZM54 76C52.6167 76 51.3167 75.7417 50.1 75.225C48.8833 74.6917 47.825 73.975 46.925 73.075C46.025 72.175 45.3083 71.1167 44.775 69.9C44.2583 68.6833 44 67.3833 44 66C44 64.6167 44.2583 63.3167 44.775 62.1C45.3083 60.8833 46.025 59.825 46.925 58.925C47.825 58.025 48.8833 57.3167 50.1 56.8C51.3167 56.2667 52.6167 56 54 56C55.3833 56 56.6833 56.2667 57.9 56.8C59.1167 57.3167 60.175 58.025 61.075 58.925C61.975 59.825 62.6833 60.8833 63.2 62.1C63.7333 63.3167 64 64.6167 64 66C64 67.3833 63.7333 68.6833 63.2 69.9C62.6833 71.1167 61.975 72.175 61.075 73.075C60.175 73.975 59.1167 74.6917 57.9 75.225C56.6833 75.7417 55.3833 76 54 76ZM54 74C56.2333 74 58.125 73.225 59.675 71.675C61.225 70.125 62 68.2333 62 66C62 63.7667 61.225 61.875 59.675 60.325C58.125 58.775 56.2333 58 54 58C51.7667 58 49.875 58.775 48.325 60.325C46.775 61.875 46 63.7667 46 66C46 68.2333 46.775 70.125 48.325 71.675C49.875 73.225 51.7667 74 54 74Z" fill="#1D1B20"/>
<defs>
<filter id="filter0_d_518_724" x="-4" y="0" width="118" height="168" filterUnits="userSpaceOnUse" color-interpolation-filters="sRGB">
<feFlood flood-opacity="0" result="BackgroundImageFix"/>
<feColorMatrix in="SourceAlpha" type="matrix" values="0 0 0 0 0 0 0 0 0 0 0 0 0 0 0 0 0 0 127 0" result="hardAlpha"/>
<feOffset dy="4"/>
<feGaussianBlur stdDeviation="2"/>
<feComposite in2="hardAlpha" operator="out"/>
<feColorMatrix type="matrix" values="0 0 0 0 0 0 0 0 0 0 0 0 0 0 0 0 0 0 0.25 0"/>
<feBlend mode="normal" in2="BackgroundImageFix" result="effect1_dropShadow_518_724"/>
<feBlend mode="normal" in="SourceGraphic" in2="effect1_dropShadow_518_724" result="shape"/>
</filter>
</defs>
</svg>
