<svg width="110" height="160" viewBox="0 0 110 160" fill="none" xmlns="http://www.w3.org/2000/svg">
<mask id="path-1-outside-1_256_17607" maskUnits="userSpaceOnUse" x="21" y="84" width="69" height="12" fill="black">
<rect fill="white" x="21" y="84" width="69" height="12"/>
<path d="M22.7658 95H21.4732L25.2118 84.8182H26.4846L30.2232 95H28.9306L25.888 86.429H25.8084L22.7658 95ZM23.2431 91.0227H28.4533V92.1165H23.2431V91.0227ZM34.5336 95.1591C33.8972 95.1591 33.3354 94.9983 32.8482 94.6768C32.361 94.352 31.9798 93.8946 31.7047 93.3047C31.4296 92.7114 31.2921 92.0104 31.2921 91.2017C31.2921 90.3996 31.4296 89.7036 31.7047 89.1136C31.9798 88.5237 32.3626 88.0679 32.8532 87.7464C33.3437 87.425 33.9105 87.2642 34.5534 87.2642C35.0506 87.2642 35.4434 87.3471 35.7317 87.5128C36.0234 87.6752 36.2454 87.8608 36.3979 88.0696C36.5537 88.2751 36.6747 88.4441 36.7608 88.5767H36.8603V84.8182H38.0336V95H36.9V93.8267H36.7608C36.6747 93.9659 36.552 94.1416 36.3929 94.3537C36.2338 94.5625 36.0068 94.7498 35.7118 94.9155C35.4168 95.0779 35.0241 95.1591 34.5336 95.1591ZM34.6926 94.1051C35.1633 94.1051 35.561 93.9825 35.8858 93.7372C36.2106 93.4886 36.4576 93.1456 36.6266 92.7081C36.7956 92.2673 36.8801 91.7585 36.8801 91.1818C36.8801 90.6117 36.7973 90.1129 36.6316 89.6854C36.4659 89.2545 36.2206 88.9197 35.8958 88.6811C35.571 88.4392 35.1699 88.3182 34.6926 88.3182C34.1955 88.3182 33.7812 88.4458 33.4498 88.701C33.1216 88.9529 32.8747 89.2959 32.709 89.7301C32.5466 90.161 32.4654 90.6449 32.4654 91.1818C32.4654 91.7254 32.5482 92.2192 32.714 92.6634C32.883 93.1042 33.1316 93.4555 33.4597 93.7173C33.7911 93.9759 34.2021 94.1051 34.6926 94.1051ZM43.2289 95.1591C42.5925 95.1591 42.0307 94.9983 41.5435 94.6768C41.0563 94.352 40.6751 93.8946 40.4 93.3047C40.1249 92.7114 39.9874 92.0104 39.9874 91.2017C39.9874 90.3996 40.1249 89.7036 40.4 89.1136C40.6751 88.5237 41.0579 88.0679 41.5485 87.7464C42.039 87.425 42.6058 87.2642 43.2488 87.2642C43.7459 87.2642 44.1387 87.3471 44.427 87.5128C44.7187 87.6752 44.9408 87.8608 45.0932 88.0696C45.249 88.2751 45.37 88.4441 45.4561 88.5767H45.5556V84.8182H46.7289V95H45.5953V93.8267H45.4561C45.37 93.9659 45.2473 94.1416 45.0882 94.3537C44.9292 94.5625 44.7021 94.7498 44.4071 94.9155C44.1122 95.0779 43.7194 95.1591 43.2289 95.1591ZM43.388 94.1051C43.8586 94.1051 44.2563 93.9825 44.5811 93.7372C44.906 93.4886 45.1529 93.1456 45.3219 92.7081C45.4909 92.2673 45.5755 91.7585 45.5755 91.1818C45.5755 90.6117 45.4926 90.1129 45.3269 89.6854C45.1612 89.2545 44.9159 88.9197 44.5911 88.6811C44.2663 88.4392 43.8652 88.3182 43.388 88.3182C42.8908 88.3182 42.4765 88.4458 42.1451 88.701C41.8169 88.9529 41.57 89.2959 41.4043 89.7301C41.2419 90.161 41.1607 90.6449 41.1607 91.1818C41.1607 91.7254 41.2435 92.2192 41.4093 92.6634C41.5783 93.1042 41.8269 93.4555 42.155 93.7173C42.4864 93.9759 42.8974 94.1051 43.388 94.1051ZM53.5549 84.8182L56.5776 93.3892H56.6969L59.7196 84.8182H61.0123L57.2736 95H56.0009L52.2623 84.8182H53.5549ZM62.4391 95V87.3636H63.6124V95H62.4391ZM63.0357 86.0909C62.807 86.0909 62.6098 86.013 62.4441 85.8572C62.2817 85.7015 62.2005 85.5142 62.2005 85.2955C62.2005 85.0767 62.2817 84.8894 62.4441 84.7337C62.6098 84.5779 62.807 84.5 63.0357 84.5C63.2644 84.5 63.4599 84.5779 63.6223 84.7337C63.7881 84.8894 63.8709 85.0767 63.8709 85.2955C63.8709 85.5142 63.7881 85.7015 63.6223 85.8572C63.4599 86.013 63.2644 86.0909 63.0357 86.0909ZM68.6449 95.1591C68.0085 95.1591 67.4467 94.9983 66.9595 94.6768C66.4723 94.352 66.0911 93.8946 65.8161 93.3047C65.541 92.7114 65.4034 92.0104 65.4034 91.2017C65.4034 90.3996 65.541 89.7036 65.8161 89.1136C66.0911 88.5237 66.474 88.0679 66.9645 87.7464C67.455 87.425 68.0218 87.2642 68.6648 87.2642C69.1619 87.2642 69.5547 87.3471 69.843 87.5128C70.1347 87.6752 70.3568 87.8608 70.5092 88.0696C70.665 88.2751 70.786 88.4441 70.8722 88.5767H70.9716V84.8182H72.1449V95H71.0114V93.8267H70.8722C70.786 93.9659 70.6634 94.1416 70.5043 94.3537C70.3452 94.5625 70.1181 94.7498 69.8232 94.9155C69.5282 95.0779 69.1354 95.1591 68.6449 95.1591ZM68.804 94.1051C69.2746 94.1051 69.6723 93.9825 69.9972 93.7372C70.322 93.4886 70.5689 93.1456 70.7379 92.7081C70.907 92.2673 70.9915 91.7585 70.9915 91.1818C70.9915 90.6117 70.9086 90.1129 70.7429 89.6854C70.5772 89.2545 70.3319 88.9197 70.0071 88.6811C69.6823 88.4392 69.2813 88.3182 68.804 88.3182C68.3068 88.3182 67.8925 88.4458 67.5611 88.701C67.233 88.9529 66.986 89.2959 66.8203 89.7301C66.6579 90.161 66.5767 90.6449 66.5767 91.1818C66.5767 91.7254 66.6596 92.2192 66.8253 92.6634C66.9943 93.1042 67.2429 93.4555 67.571 93.7173C67.9025 93.9759 68.3134 94.1051 68.804 94.1051ZM77.6584 95.1591C76.9226 95.1591 76.2879 94.9967 75.7543 94.6719C75.224 94.3438 74.8146 93.8864 74.5263 93.2997C74.2412 92.7098 74.0987 92.0237 74.0987 91.2415C74.0987 90.4593 74.2412 89.7699 74.5263 89.1733C74.8146 88.5734 75.2157 88.1061 75.7294 87.7713C76.2464 87.4332 76.8497 87.2642 77.5391 87.2642C77.9368 87.2642 78.3295 87.3305 78.7173 87.4631C79.1051 87.5956 79.4581 87.8111 79.7763 88.1094C80.0945 88.4044 80.348 88.7955 80.5369 89.2827C80.7259 89.7699 80.8203 90.3698 80.8203 91.0824V91.5795H74.9339V90.5653H79.6271C79.6271 90.1345 79.541 89.75 79.3686 89.4119C79.1996 89.0739 78.9576 88.8071 78.6428 88.6115C78.3312 88.416 77.9633 88.3182 77.5391 88.3182C77.0717 88.3182 76.6674 88.4342 76.326 88.6662C75.9879 88.8949 75.7277 89.1932 75.5455 89.5611C75.3632 89.929 75.272 90.3234 75.272 90.7443V91.4205C75.272 91.9972 75.3714 92.486 75.5703 92.8871C75.7725 93.2848 76.0526 93.5881 76.4105 93.7969C76.7685 94.0024 77.1844 94.1051 77.6584 94.1051C77.9666 94.1051 78.245 94.062 78.4936 93.9759C78.7455 93.8864 78.9626 93.7538 79.1449 93.5781C79.3272 93.3991 79.468 93.1771 79.5675 92.9119L80.701 93.2301C80.5817 93.6146 80.3812 93.9527 80.0994 94.2443C79.8177 94.5327 79.4697 94.758 79.0554 94.9205C78.6411 95.0795 78.1754 95.1591 77.6584 95.1591ZM85.7074 95.1591C85.018 95.1591 84.4131 94.995 83.8928 94.6669C83.3757 94.3388 82.9714 93.8797 82.6797 93.2898C82.3913 92.6998 82.2472 92.0104 82.2472 91.2216C82.2472 90.4261 82.3913 89.7318 82.6797 89.1385C82.9714 88.5452 83.3757 88.0845 83.8928 87.7564C84.4131 87.4283 85.018 87.2642 85.7074 87.2642C86.3968 87.2642 87 87.4283 87.517 87.7564C88.0374 88.0845 88.4418 88.5452 88.7301 89.1385C89.0218 89.7318 89.1676 90.4261 89.1676 91.2216C89.1676 92.0104 89.0218 92.6998 88.7301 93.2898C88.4418 93.8797 88.0374 94.3388 87.517 94.6669C87 94.995 86.3968 95.1591 85.7074 95.1591ZM85.7074 94.1051C86.2311 94.1051 86.6619 93.9709 87 93.7024C87.3381 93.4339 87.5883 93.081 87.7507 92.6435C87.9131 92.206 87.9943 91.732 87.9943 91.2216C87.9943 90.7112 87.9131 90.2356 87.7507 89.7947C87.5883 89.3539 87.3381 88.9976 87 88.7259C86.6619 88.4541 86.2311 88.3182 85.7074 88.3182C85.1837 88.3182 84.7528 88.4541 84.4148 88.7259C84.0767 88.9976 83.8265 89.3539 83.6641 89.7947C83.5017 90.2356 83.4205 90.7112 83.4205 91.2216C83.4205 91.732 83.5017 92.206 83.6641 92.6435C83.8265 93.081 84.0767 93.4339 84.4148 93.7024C84.7528 93.9709 85.1837 94.1051 85.7074 94.1051Z"/>
</mask>
<path d="M22.7658 95H21.4732L25.2118 84.8182H26.4846L30.2232 95H28.9306L25.888 86.429H25.8084L22.7658 95ZM23.2431 91.0227H28.4533V92.1165H23.2431V91.0227ZM34.5336 95.1591C33.8972 95.1591 33.3354 94.9983 32.8482 94.6768C32.361 94.352 31.9798 93.8946 31.7047 93.3047C31.4296 92.7114 31.2921 92.0104 31.2921 91.2017C31.2921 90.3996 31.4296 89.7036 31.7047 89.1136C31.9798 88.5237 32.3626 88.0679 32.8532 87.7464C33.3437 87.425 33.9105 87.2642 34.5534 87.2642C35.0506 87.2642 35.4434 87.3471 35.7317 87.5128C36.0234 87.6752 36.2454 87.8608 36.3979 88.0696C36.5537 88.2751 36.6747 88.4441 36.7608 88.5767H36.8603V84.8182H38.0336V95H36.9V93.8267H36.7608C36.6747 93.9659 36.552 94.1416 36.3929 94.3537C36.2338 94.5625 36.0068 94.7498 35.7118 94.9155C35.4168 95.0779 35.0241 95.1591 34.5336 95.1591ZM34.6926 94.1051C35.1633 94.1051 35.561 93.9825 35.8858 93.7372C36.2106 93.4886 36.4576 93.1456 36.6266 92.7081C36.7956 92.2673 36.8801 91.7585 36.8801 91.1818C36.8801 90.6117 36.7973 90.1129 36.6316 89.6854C36.4659 89.2545 36.2206 88.9197 35.8958 88.6811C35.571 88.4392 35.1699 88.3182 34.6926 88.3182C34.1955 88.3182 33.7812 88.4458 33.4498 88.701C33.1216 88.9529 32.8747 89.2959 32.709 89.7301C32.5466 90.161 32.4654 90.6449 32.4654 91.1818C32.4654 91.7254 32.5482 92.2192 32.714 92.6634C32.883 93.1042 33.1316 93.4555 33.4597 93.7173C33.7911 93.9759 34.2021 94.1051 34.6926 94.1051ZM43.2289 95.1591C42.5925 95.1591 42.0307 94.9983 41.5435 94.6768C41.0563 94.352 40.6751 93.8946 40.4 93.3047C40.1249 92.7114 39.9874 92.0104 39.9874 91.2017C39.9874 90.3996 40.1249 89.7036 40.4 89.1136C40.6751 88.5237 41.0579 88.0679 41.5485 87.7464C42.039 87.425 42.6058 87.2642 43.2488 87.2642C43.7459 87.2642 44.1387 87.3471 44.427 87.5128C44.7187 87.6752 44.9408 87.8608 45.0932 88.0696C45.249 88.2751 45.37 88.4441 45.4561 88.5767H45.5556V84.8182H46.7289V95H45.5953V93.8267H45.4561C45.37 93.9659 45.2473 94.1416 45.0882 94.3537C44.9292 94.5625 44.7021 94.7498 44.4071 94.9155C44.1122 95.0779 43.7194 95.1591 43.2289 95.1591ZM43.388 94.1051C43.8586 94.1051 44.2563 93.9825 44.5811 93.7372C44.906 93.4886 45.1529 93.1456 45.3219 92.7081C45.4909 92.2673 45.5755 91.7585 45.5755 91.1818C45.5755 90.6117 45.4926 90.1129 45.3269 89.6854C45.1612 89.2545 44.9159 88.9197 44.5911 88.6811C44.2663 88.4392 43.8652 88.3182 43.388 88.3182C42.8908 88.3182 42.4765 88.4458 42.1451 88.701C41.8169 88.9529 41.57 89.2959 41.4043 89.7301C41.2419 90.161 41.1607 90.6449 41.1607 91.1818C41.1607 91.7254 41.2435 92.2192 41.4093 92.6634C41.5783 93.1042 41.8269 93.4555 42.155 93.7173C42.4864 93.9759 42.8974 94.1051 43.388 94.1051ZM53.5549 84.8182L56.5776 93.3892H56.6969L59.7196 84.8182H61.0123L57.2736 95H56.0009L52.2623 84.8182H53.5549ZM62.4391 95V87.3636H63.6124V95H62.4391ZM63.0357 86.0909C62.807 86.0909 62.6098 86.013 62.4441 85.8572C62.2817 85.7015 62.2005 85.5142 62.2005 85.2955C62.2005 85.0767 62.2817 84.8894 62.4441 84.7337C62.6098 84.5779 62.807 84.5 63.0357 84.5C63.2644 84.5 63.4599 84.5779 63.6223 84.7337C63.7881 84.8894 63.8709 85.0767 63.8709 85.2955C63.8709 85.5142 63.7881 85.7015 63.6223 85.8572C63.4599 86.013 63.2644 86.0909 63.0357 86.0909ZM68.6449 95.1591C68.0085 95.1591 67.4467 94.9983 66.9595 94.6768C66.4723 94.352 66.0911 93.8946 65.8161 93.3047C65.541 92.7114 65.4034 92.0104 65.4034 91.2017C65.4034 90.3996 65.541 89.7036 65.8161 89.1136C66.0911 88.5237 66.474 88.0679 66.9645 87.7464C67.455 87.425 68.0218 87.2642 68.6648 87.2642C69.1619 87.2642 69.5547 87.3471 69.843 87.5128C70.1347 87.6752 70.3568 87.8608 70.5092 88.0696C70.665 88.2751 70.786 88.4441 70.8722 88.5767H70.9716V84.8182H72.1449V95H71.0114V93.8267H70.8722C70.786 93.9659 70.6634 94.1416 70.5043 94.3537C70.3452 94.5625 70.1181 94.7498 69.8232 94.9155C69.5282 95.0779 69.1354 95.1591 68.6449 95.1591ZM68.804 94.1051C69.2746 94.1051 69.6723 93.9825 69.9972 93.7372C70.322 93.4886 70.5689 93.1456 70.7379 92.7081C70.907 92.2673 70.9915 91.7585 70.9915 91.1818C70.9915 90.6117 70.9086 90.1129 70.7429 89.6854C70.5772 89.2545 70.3319 88.9197 70.0071 88.6811C69.6823 88.4392 69.2813 88.3182 68.804 88.3182C68.3068 88.3182 67.8925 88.4458 67.5611 88.701C67.233 88.9529 66.986 89.2959 66.8203 89.7301C66.6579 90.161 66.5767 90.6449 66.5767 91.1818C66.5767 91.7254 66.6596 92.2192 66.8253 92.6634C66.9943 93.1042 67.2429 93.4555 67.571 93.7173C67.9025 93.9759 68.3134 94.1051 68.804 94.1051ZM77.6584 95.1591C76.9226 95.1591 76.2879 94.9967 75.7543 94.6719C75.224 94.3438 74.8146 93.8864 74.5263 93.2997C74.2412 92.7098 74.0987 92.0237 74.0987 91.2415C74.0987 90.4593 74.2412 89.7699 74.5263 89.1733C74.8146 88.5734 75.2157 88.1061 75.7294 87.7713C76.2464 87.4332 76.8497 87.2642 77.5391 87.2642C77.9368 87.2642 78.3295 87.3305 78.7173 87.4631C79.1051 87.5956 79.4581 87.8111 79.7763 88.1094C80.0945 88.4044 80.348 88.7955 80.5369 89.2827C80.7259 89.7699 80.8203 90.3698 80.8203 91.0824V91.5795H74.9339V90.5653H79.6271C79.6271 90.1345 79.541 89.75 79.3686 89.4119C79.1996 89.0739 78.9576 88.8071 78.6428 88.6115C78.3312 88.416 77.9633 88.3182 77.5391 88.3182C77.0717 88.3182 76.6674 88.4342 76.326 88.6662C75.9879 88.8949 75.7277 89.1932 75.5455 89.5611C75.3632 89.929 75.272 90.3234 75.272 90.7443V91.4205C75.272 91.9972 75.3714 92.486 75.5703 92.8871C75.7725 93.2848 76.0526 93.5881 76.4105 93.7969C76.7685 94.0024 77.1844 94.1051 77.6584 94.1051C77.9666 94.1051 78.245 94.062 78.4936 93.9759C78.7455 93.8864 78.9626 93.7538 79.1449 93.5781C79.3272 93.3991 79.468 93.1771 79.5675 92.9119L80.701 93.2301C80.5817 93.6146 80.3812 93.9527 80.0994 94.2443C79.8177 94.5327 79.4697 94.758 79.0554 94.9205C78.6411 95.0795 78.1754 95.1591 77.6584 95.1591ZM85.7074 95.1591C85.018 95.1591 84.4131 94.995 83.8928 94.6669C83.3757 94.3388 82.9714 93.8797 82.6797 93.2898C82.3913 92.6998 82.2472 92.0104 82.2472 91.2216C82.2472 90.4261 82.3913 89.7318 82.6797 89.1385C82.9714 88.5452 83.3757 88.0845 83.8928 87.7564C84.4131 87.4283 85.018 87.2642 85.7074 87.2642C86.3968 87.2642 87 87.4283 87.517 87.7564C88.0374 88.0845 88.4418 88.5452 88.7301 89.1385C89.0218 89.7318 89.1676 90.4261 89.1676 91.2216C89.1676 92.0104 89.0218 92.6998 88.7301 93.2898C88.4418 93.8797 88.0374 94.3388 87.517 94.6669C87 94.995 86.3968 95.1591 85.7074 95.1591ZM85.7074 94.1051C86.2311 94.1051 86.6619 93.9709 87 93.7024C87.3381 93.4339 87.5883 93.081 87.7507 92.6435C87.9131 92.206 87.9943 91.732 87.9943 91.2216C87.9943 90.7112 87.9131 90.2356 87.7507 89.7947C87.5883 89.3539 87.3381 88.9976 87 88.7259C86.6619 88.4541 86.2311 88.3182 85.7074 88.3182C85.1837 88.3182 84.7528 88.4541 84.4148 88.7259C84.0767 88.9976 83.8265 89.3539 83.6641 89.7947C83.5017 90.2356 83.4205 90.7112 83.4205 91.2216C83.4205 91.732 83.5017 92.206 83.6641 92.6435C83.8265 93.081 84.0767 93.4339 84.4148 93.7024C84.7528 93.9709 85.1837 94.1051 85.7074 94.1051Z" fill="black"/>
<path d="M22.7658 95V95.2H22.907L22.9543 95.0669L22.7658 95ZM21.4732 95L21.2854 94.9311L21.1867 95.2H21.4732V95ZM25.2118 84.8182V84.6182H25.0722L25.0241 84.7492L25.2118 84.8182ZM26.4846 84.8182L26.6723 84.7492L26.6242 84.6182H26.4846V84.8182ZM30.2232 95V95.2H30.5097L30.4109 94.9311L30.2232 95ZM28.9306 95L28.7421 95.0669L28.7893 95.2H28.9306V95ZM25.888 86.429L26.0764 86.3621L26.0292 86.229H25.888V86.429ZM25.8084 86.429V86.229H25.6672L25.6199 86.3621L25.8084 86.429ZM23.2431 91.0227V90.8227H23.0431V91.0227H23.2431ZM28.4533 91.0227H28.6533V90.8227H28.4533V91.0227ZM28.4533 92.1165V92.3165H28.6533V92.1165H28.4533ZM23.2431 92.1165H23.0431V92.3165H23.2431V92.1165ZM22.7658 94.8H21.4732V95.2H22.7658V94.8ZM21.6609 95.0689L25.3996 84.8871L25.0241 84.7492L21.2854 94.9311L21.6609 95.0689ZM25.2118 85.0182H26.4846V84.6182H25.2118V85.0182ZM26.2968 84.8871L30.0354 95.0689L30.4109 94.9311L26.6723 84.7492L26.2968 84.8871ZM30.2232 94.8H28.9306V95.2H30.2232V94.8ZM29.1191 94.9331L26.0764 86.3621L25.6995 86.4959L28.7421 95.0669L29.1191 94.9331ZM25.888 86.229H25.8084V86.629H25.888V86.229ZM25.6199 86.3621L22.5773 94.9331L22.9543 95.0669L25.9969 86.4959L25.6199 86.3621ZM23.2431 91.2227H28.4533V90.8227H23.2431V91.2227ZM28.2533 91.0227V92.1165H28.6533V91.0227H28.2533ZM28.4533 91.9165H23.2431V92.3165H28.4533V91.9165ZM23.4431 92.1165V91.0227H23.0431V92.1165H23.4431ZM32.8482 94.6768L32.7372 94.8433L32.738 94.8438L32.8482 94.6768ZM31.7047 93.3047L31.5233 93.3888L31.5235 93.3892L31.7047 93.3047ZM31.7047 89.1136L31.5235 89.0291L31.7047 89.1136ZM32.8532 87.7464L32.7435 87.5792V87.5792L32.8532 87.7464ZM35.7317 87.5128L35.632 87.6862L35.6344 87.6875L35.7317 87.5128ZM36.3979 88.0696L36.2364 88.1876L36.2385 88.1904L36.3979 88.0696ZM36.7608 88.5767L36.5931 88.6857L36.6523 88.7767H36.7608V88.5767ZM36.8603 88.5767V88.7767H37.0603V88.5767H36.8603ZM36.8603 84.8182V84.6182H36.6603V84.8182H36.8603ZM38.0336 84.8182H38.2336V84.6182H38.0336V84.8182ZM38.0336 95V95.2H38.2336V95H38.0336ZM36.9 95H36.7V95.2H36.9V95ZM36.9 93.8267H37.1V93.6267H36.9V93.8267ZM36.7608 93.8267V93.6267H36.6494L36.5908 93.7214L36.7608 93.8267ZM36.3929 94.3537L36.552 94.4749L36.5529 94.4737L36.3929 94.3537ZM35.7118 94.9155L35.8083 95.0907L35.8098 95.0899L35.7118 94.9155ZM35.8858 93.7372L36.0064 93.8968L36.0074 93.896L35.8858 93.7372ZM36.6266 92.7081L36.8132 92.7802L36.8133 92.7797L36.6266 92.7081ZM36.6316 89.6854L36.4449 89.7572L36.4451 89.7576L36.6316 89.6854ZM35.8958 88.6811L35.7763 88.8415L35.7774 88.8423L35.8958 88.6811ZM33.4498 88.701L33.5715 88.8596L33.5718 88.8595L33.4498 88.701ZM32.709 89.7301L32.5221 89.6588L32.5218 89.6596L32.709 89.7301ZM32.714 92.6634L32.5266 92.7333L32.5272 92.735L32.714 92.6634ZM33.4597 93.7173L33.3349 93.8737L33.3367 93.875L33.4597 93.7173ZM34.5336 94.9591C33.9327 94.9591 33.4099 94.8079 32.9583 94.5099L32.738 94.8438C33.2609 95.1888 33.8617 95.3591 34.5336 95.3591V94.9591ZM32.9591 94.5104C32.5057 94.2082 32.1474 93.7807 31.886 93.2202L31.5235 93.3892C31.8123 94.0086 32.2162 94.4959 32.7372 94.8433L32.9591 94.5104ZM31.8862 93.2206C31.6258 92.6591 31.4921 91.9881 31.4921 91.2017H31.0921C31.0921 92.0328 31.2334 92.7637 31.5233 93.3888L31.8862 93.2206ZM31.4921 91.2017C31.4921 90.4222 31.6258 89.7562 31.886 89.1982L31.5235 89.0291C31.2335 89.651 31.0921 90.377 31.0921 91.2017H31.4921ZM31.886 89.1982C32.1471 88.6381 32.5067 88.2126 32.9628 87.9137L32.7435 87.5792C32.2185 87.9233 31.8125 88.4093 31.5235 89.0291L31.886 89.1982ZM32.9628 87.9137C33.4176 87.6156 33.9455 87.4642 34.5534 87.4642V87.0642C33.8754 87.0642 33.2698 87.2343 32.7435 87.5792L32.9628 87.9137ZM34.5534 87.4642C35.0317 87.4642 35.3854 87.5444 35.6321 87.6862L35.8314 87.3394C35.5013 87.1497 35.0695 87.0642 34.5534 87.0642V87.4642ZM35.6344 87.6875C35.9079 87.8398 36.1052 88.0078 36.2364 88.1875L36.5594 87.9517C36.3857 87.7137 36.1389 87.5106 35.829 87.338L35.6344 87.6875ZM36.2385 88.1904C36.393 88.3941 36.5107 88.5589 36.5931 88.6857L36.9285 88.4677C36.8386 88.3294 36.7144 88.156 36.5573 87.9488L36.2385 88.1904ZM36.7608 88.7767H36.8603V88.3767H36.7608V88.7767ZM37.0603 88.5767V84.8182H36.6603V88.5767H37.0603ZM36.8603 85.0182H38.0336V84.6182H36.8603V85.0182ZM37.8336 84.8182V95H38.2336V84.8182H37.8336ZM38.0336 94.8H36.9V95.2H38.0336V94.8ZM37.1 95V93.8267H36.7V95H37.1ZM36.9 93.6267H36.7608V94.0267H36.9V93.6267ZM36.5908 93.7214C36.509 93.8535 36.3903 94.0238 36.2329 94.2337L36.5529 94.4737C36.7137 94.2593 36.8403 94.0783 36.9309 93.932L36.5908 93.7214ZM36.2338 94.2325C36.0953 94.4143 35.8916 94.5851 35.6139 94.7411L35.8098 95.0899C36.122 94.9145 36.3724 94.7107 36.552 94.4749L36.2338 94.2325ZM35.6154 94.7403C35.3604 94.8807 35.0047 94.9591 34.5336 94.9591V95.3591C35.0435 95.3591 35.4733 95.2751 35.8083 95.0907L35.6154 94.7403ZM34.6926 94.3051C35.1997 94.3051 35.6416 94.1723 36.0064 93.8968L35.7653 93.5776C35.4805 93.7927 35.1269 93.9051 34.6926 93.9051V94.3051ZM36.0074 93.896C36.3655 93.622 36.6328 93.2469 36.8132 92.7802L36.44 92.636C36.2823 93.0443 36.0558 93.3553 35.7643 93.5784L36.0074 93.896ZM36.8133 92.7797C36.9928 92.3116 37.0801 91.7777 37.0801 91.1818H36.6801C36.6801 91.7393 36.5984 92.223 36.4399 92.6365L36.8133 92.7797ZM37.0801 91.1818C37.0801 90.5928 36.9946 90.0685 36.8181 89.6131L36.4451 89.7576C36.6 90.1573 36.6801 90.6307 36.6801 91.1818H37.0801ZM36.8182 89.6136C36.6408 89.1523 36.3741 88.7844 36.0142 88.5199L35.7774 88.8423C36.067 89.0551 36.2909 89.3567 36.4449 89.7572L36.8182 89.6136ZM36.0153 88.5207C35.6501 88.2487 35.205 88.1182 34.6926 88.1182V88.5182C35.1348 88.5182 35.4919 88.6296 35.7763 88.8415L36.0153 88.5207ZM34.6926 88.1182C34.16 88.1182 33.7004 88.2556 33.3277 88.5425L33.5718 88.8595C33.862 88.636 34.231 88.5182 34.6926 88.5182V88.1182ZM33.328 88.5423C32.967 88.8195 32.6994 89.1944 32.5221 89.6588L32.8958 89.8014C33.05 89.3974 33.2763 89.0863 33.5715 88.8596L33.328 88.5423ZM32.5218 89.6596C32.3496 90.1164 32.2654 90.6247 32.2654 91.1818H32.6654C32.6654 90.6651 32.7435 90.2056 32.8961 89.8007L32.5218 89.6596ZM32.2654 91.1818C32.2654 91.7458 32.3514 92.2638 32.5266 92.7333L32.9013 92.5934C32.7451 92.1747 32.6654 91.705 32.6654 91.1818H32.2654ZM32.5272 92.735C32.7074 93.2048 32.9756 93.5869 33.3349 93.8737L33.5844 93.561C33.2875 93.324 33.0586 93.0035 32.9007 92.5917L32.5272 92.735ZM33.3367 93.875C33.7089 94.1654 34.1653 94.3051 34.6926 94.3051V93.9051C34.2389 93.9051 33.8733 93.7863 33.5827 93.5596L33.3367 93.875ZM41.5435 94.6768L41.4326 94.8433L41.4333 94.8438L41.5435 94.6768ZM40.4 93.3047L40.2186 93.3888L40.2188 93.3892L40.4 93.3047ZM40.4 89.1136L40.2188 89.0291L40.4 89.1136ZM41.5485 87.7464L41.4388 87.5792V87.5792L41.5485 87.7464ZM44.427 87.5128L44.3274 87.6862L44.3297 87.6875L44.427 87.5128ZM45.0932 88.0696L44.9317 88.1876L44.9338 88.1904L45.0932 88.0696ZM45.4561 88.5767L45.2885 88.6857L45.3476 88.7767H45.4561V88.5767ZM45.5556 88.5767V88.7767H45.7556V88.5767H45.5556ZM45.5556 84.8182V84.6182H45.3556V84.8182H45.5556ZM46.7289 84.8182H46.9289V84.6182H46.7289V84.8182ZM46.7289 95V95.2H46.9289V95H46.7289ZM45.5953 95H45.3953V95.2H45.5953V95ZM45.5953 93.8267H45.7953V93.6267H45.5953V93.8267ZM45.4561 93.8267V93.6267H45.3447L45.2861 93.7214L45.4561 93.8267ZM45.0882 94.3537L45.2473 94.4749L45.2482 94.4737L45.0882 94.3537ZM44.4071 94.9155L44.5036 95.0907L44.5051 95.0899L44.4071 94.9155ZM44.5811 93.7372L44.7017 93.8968L44.7027 93.896L44.5811 93.7372ZM45.3219 92.7081L45.5085 92.7802L45.5087 92.7797L45.3219 92.7081ZM45.3269 89.6854L45.1402 89.7572L45.1404 89.7576L45.3269 89.6854ZM44.5911 88.6811L44.4716 88.8415L44.4727 88.8423L44.5911 88.6811ZM42.1451 88.701L42.2669 88.8596L42.2671 88.8595L42.1451 88.701ZM41.4043 89.7301L41.2174 89.6588L41.2171 89.6596L41.4043 89.7301ZM41.4093 92.6634L41.2219 92.7333L41.2225 92.735L41.4093 92.6634ZM42.155 93.7173L42.0303 93.8737L42.032 93.875L42.155 93.7173ZM43.2289 94.9591C42.628 94.9591 42.1052 94.8079 41.6537 94.5099L41.4333 94.8438C41.9562 95.1888 42.557 95.3591 43.2289 95.3591V94.9591ZM41.6544 94.5104C41.2011 94.2082 40.8427 93.7807 40.5813 93.2202L40.2188 93.3892C40.5076 94.0086 40.9115 94.4959 41.4326 94.8433L41.6544 94.5104ZM40.5815 93.2206C40.3211 92.6591 40.1874 91.9881 40.1874 91.2017H39.7874C39.7874 92.0328 39.9287 92.7637 40.2186 93.3888L40.5815 93.2206ZM40.1874 91.2017C40.1874 90.4222 40.3211 89.7562 40.5813 89.1982L40.2188 89.0291C39.9288 89.651 39.7874 90.377 39.7874 91.2017H40.1874ZM40.5813 89.1982C40.8425 88.6381 41.202 88.2126 41.6581 87.9137L41.4388 87.5792C40.9139 87.9233 40.5078 88.4093 40.2188 89.0291L40.5813 89.1982ZM41.6581 87.9137C42.1129 87.6156 42.6408 87.4642 43.2488 87.4642V87.0642C42.5707 87.0642 41.9651 87.2343 41.4388 87.5792L41.6581 87.9137ZM43.2488 87.4642C43.727 87.4642 44.0807 87.5444 44.3274 87.6862L44.5267 87.3394C44.1966 87.1497 43.7649 87.0642 43.2488 87.0642V87.4642ZM44.3297 87.6875C44.6032 87.8398 44.8005 88.0078 44.9317 88.1875L45.2547 87.9517C45.081 87.7137 44.8342 87.5106 44.5243 87.338L44.3297 87.6875ZM44.9338 88.1904C45.0883 88.3941 45.206 88.5589 45.2885 88.6857L45.6238 88.4677C45.5339 88.3294 45.4097 88.156 45.2526 87.9488L44.9338 88.1904ZM45.4561 88.7767H45.5556V88.3767H45.4561V88.7767ZM45.7556 88.5767V84.8182H45.3556V88.5767H45.7556ZM45.5556 85.0182H46.7289V84.6182H45.5556V85.0182ZM46.5289 84.8182V95H46.9289V84.8182H46.5289ZM46.7289 94.8H45.5953V95.2H46.7289V94.8ZM45.7953 95V93.8267H45.3953V95H45.7953ZM45.5953 93.6267H45.4561V94.0267H45.5953V93.6267ZM45.2861 93.7214C45.2044 93.8535 45.0857 94.0238 44.9282 94.2337L45.2482 94.4737C45.409 94.2593 45.5356 94.0783 45.6262 93.932L45.2861 93.7214ZM44.9292 94.2325C44.7906 94.4143 44.587 94.5851 44.3092 94.7411L44.5051 95.0899C44.8173 94.9145 45.0677 94.7107 45.2473 94.4749L44.9292 94.2325ZM44.3107 94.7403C44.0557 94.8807 43.7 94.9591 43.2289 94.9591V95.3591C43.7388 95.3591 44.1686 95.2751 44.5036 95.0907L44.3107 94.7403ZM43.388 94.3051C43.895 94.3051 44.3369 94.1723 44.7017 93.8968L44.4606 93.5776C44.1758 93.7927 43.8222 93.9051 43.388 93.9051V94.3051ZM44.7027 93.896C45.0608 93.622 45.3282 93.2469 45.5085 92.7802L45.1354 92.636C44.9776 93.0443 44.7511 93.3553 44.4596 93.5784L44.7027 93.896ZM45.5087 92.7797C45.6882 92.3116 45.7755 91.7777 45.7755 91.1818H45.3755C45.3755 91.7393 45.2937 92.223 45.1352 92.6365L45.5087 92.7797ZM45.7755 91.1818C45.7755 90.5928 45.6899 90.0685 45.5134 89.6131L45.1404 89.7576C45.2953 90.1573 45.3755 90.6307 45.3755 91.1818H45.7755ZM45.5136 89.6136C45.3361 89.1523 45.0694 88.7844 44.7095 88.5199L44.4727 88.8423C44.7624 89.0551 44.9862 89.3567 45.1402 89.7572L45.5136 89.6136ZM44.7106 88.5207C44.3454 88.2487 43.9003 88.1182 43.388 88.1182V88.5182C43.8301 88.5182 44.1872 88.6296 44.4716 88.8415L44.7106 88.5207ZM43.388 88.1182C42.8553 88.1182 42.3957 88.2556 42.023 88.5425L42.2671 88.8595C42.5573 88.636 42.9263 88.5182 43.388 88.5182V88.1182ZM42.0233 88.5423C41.6623 88.8195 41.3947 89.1944 41.2174 89.6588L41.5911 89.8014C41.7453 89.3974 41.9716 89.0863 42.2669 88.8596L42.0233 88.5423ZM41.2171 89.6596C41.045 90.1164 40.9607 90.6247 40.9607 91.1818H41.3607C41.3607 90.6651 41.4388 90.2056 41.5914 89.8007L41.2171 89.6596ZM40.9607 91.1818C40.9607 91.7458 41.0467 92.2638 41.2219 92.7333L41.5966 92.5934C41.4404 92.1747 41.3607 91.705 41.3607 91.1818H40.9607ZM41.2225 92.735C41.4027 93.2048 41.6709 93.5869 42.0303 93.8737L42.2798 93.561C41.9828 93.324 41.7539 93.0035 41.596 92.5917L41.2225 92.735ZM42.032 93.875C42.4042 94.1654 42.8606 94.3051 43.388 94.3051V93.9051C42.9342 93.9051 42.5686 93.7863 42.278 93.5596L42.032 93.875ZM53.5549 84.8182L53.7435 84.7517L53.6964 84.6182H53.5549V84.8182ZM56.5776 93.3892L56.389 93.4557L56.4361 93.5892H56.5776V93.3892ZM56.6969 93.3892V93.5892H56.8385L56.8855 93.4557L56.6969 93.3892ZM59.7196 84.8182V84.6182H59.5781L59.531 84.7517L59.7196 84.8182ZM61.0123 84.8182L61.2 84.8871L61.2987 84.6182H61.0123V84.8182ZM57.2736 95V95.2H57.4132L57.4614 95.0689L57.2736 95ZM56.0009 95L55.8131 95.0689L55.8613 95.2H56.0009V95ZM52.2623 84.8182V84.6182H51.9758L52.0745 84.8871L52.2623 84.8182ZM53.3662 84.8847L56.389 93.4557L56.7662 93.3227L53.7435 84.7517L53.3662 84.8847ZM56.5776 93.5892H56.6969V93.1892H56.5776V93.5892ZM56.8855 93.4557L59.9083 84.8847L59.531 84.7517L56.5083 93.3227L56.8855 93.4557ZM59.7196 85.0182H61.0123V84.6182H59.7196V85.0182ZM60.8245 84.7492L57.0859 94.9311L57.4614 95.0689L61.2 84.8871L60.8245 84.7492ZM57.2736 94.8H56.0009V95.2H57.2736V94.8ZM56.1886 94.9311L52.45 84.7492L52.0745 84.8871L55.8131 95.0689L56.1886 94.9311ZM52.2623 85.0182H53.5549V84.6182H52.2623V85.0182ZM62.4391 95H62.2391V95.2H62.4391V95ZM62.4391 87.3636V87.1636H62.2391V87.3636H62.4391ZM63.6124 87.3636H63.8124V87.1636H63.6124V87.3636ZM63.6124 95V95.2H63.8124V95H63.6124ZM62.4441 85.8572L62.3056 86.0016L62.3071 86.003L62.4441 85.8572ZM62.4441 84.7337L62.3071 84.5879L62.3056 84.5893L62.4441 84.7337ZM63.6223 84.7337L63.4839 84.878L63.4854 84.8794L63.6223 84.7337ZM63.6223 85.8572L63.4853 85.7115L63.4839 85.7129L63.6223 85.8572ZM62.6391 95V87.3636H62.2391V95H62.6391ZM62.4391 87.5636H63.6124V87.1636H62.4391V87.5636ZM63.4124 87.3636V95H63.8124V87.3636H63.4124ZM63.6124 94.8H62.4391V95.2H63.6124V94.8ZM63.0357 85.8909C62.8576 85.8909 62.7095 85.8322 62.5811 85.7115L62.3071 86.003C62.5101 86.1938 62.7564 86.2909 63.0357 86.2909V85.8909ZM62.5825 85.7129C62.4582 85.5936 62.4005 85.458 62.4005 85.2955H62.0005C62.0005 85.5704 62.1052 85.8093 62.3056 86.0016L62.5825 85.7129ZM62.4005 85.2955C62.4005 85.1329 62.4582 84.9973 62.5825 84.878L62.3056 84.5893C62.1052 84.7816 62.0005 85.0205 62.0005 85.2955H62.4005ZM62.5811 84.8794C62.7095 84.7587 62.8576 84.7 63.0357 84.7V84.3C62.7564 84.3 62.5101 84.3971 62.3071 84.5879L62.5811 84.8794ZM63.0357 84.7C63.2137 84.7 63.3594 84.7586 63.4839 84.878L63.7608 84.5893C63.5605 84.3972 63.315 84.3 63.0357 84.3V84.7ZM63.4854 84.8794C63.6127 84.9991 63.6709 85.1343 63.6709 85.2955H64.0709C64.0709 85.0191 63.9635 84.7798 63.7593 84.5879L63.4854 84.8794ZM63.6709 85.2955C63.6709 85.4566 63.6127 85.5918 63.4854 85.7115L63.7593 86.003C63.9635 85.8111 64.0709 85.5718 64.0709 85.2955H63.6709ZM63.4839 85.7129C63.3594 85.8323 63.2137 85.8909 63.0357 85.8909V86.2909C63.315 86.2909 63.5605 86.1937 63.7608 86.0016L63.4839 85.7129ZM66.9595 94.6768L66.8486 94.8433L66.8494 94.8438L66.9595 94.6768ZM65.8161 93.3047L65.6346 93.3888L65.6348 93.3892L65.8161 93.3047ZM65.8161 89.1136L65.6348 89.0291L65.8161 89.1136ZM66.9645 87.7464L66.8549 87.5792V87.5792L66.9645 87.7464ZM69.843 87.5128L69.7434 87.6862L69.7457 87.6875L69.843 87.5128ZM70.5092 88.0696L70.3477 88.1876L70.3499 88.1904L70.5092 88.0696ZM70.8722 88.5767L70.7045 88.6857L70.7636 88.7767H70.8722V88.5767ZM70.9716 88.5767V88.7767H71.1716V88.5767H70.9716ZM70.9716 84.8182V84.6182H70.7716V84.8182H70.9716ZM72.1449 84.8182H72.3449V84.6182H72.1449V84.8182ZM72.1449 95V95.2H72.3449V95H72.1449ZM71.0114 95H70.8114V95.2H71.0114V95ZM71.0114 93.8267H71.2114V93.6267H71.0114V93.8267ZM70.8722 93.8267V93.6267H70.7607L70.7021 93.7214L70.8722 93.8267ZM70.5043 94.3537L70.6634 94.4749L70.6643 94.4737L70.5043 94.3537ZM69.8232 94.9155L69.9196 95.0907L69.9211 95.0899L69.8232 94.9155ZM69.9972 93.7372L70.1177 93.8968L70.1187 93.896L69.9972 93.7372ZM70.7379 92.7081L70.9245 92.7802L70.9247 92.7797L70.7379 92.7081ZM70.7429 89.6854L70.5562 89.7572L70.5564 89.7576L70.7429 89.6854ZM70.0071 88.6811L69.8876 88.8415L69.8887 88.8423L70.0071 88.6811ZM67.5611 88.701L67.6829 88.8596L67.6831 88.8595L67.5611 88.701ZM66.8203 89.7301L66.6335 89.6588L66.6332 89.6596L66.8203 89.7301ZM66.8253 92.6634L66.6379 92.7333L66.6385 92.735L66.8253 92.6634ZM67.571 93.7173L67.4463 93.8737L67.448 93.875L67.571 93.7173ZM68.6449 94.9591C68.044 94.9591 67.5213 94.8079 67.0697 94.5099L66.8494 94.8438C67.3722 95.1888 67.973 95.3591 68.6449 95.3591V94.9591ZM67.0705 94.5104C66.6171 94.2082 66.2587 93.7807 65.9973 93.2202L65.6348 93.3892C65.9236 94.0086 66.3275 94.4959 66.8486 94.8433L67.0705 94.5104ZM65.9975 93.2206C65.7372 92.6591 65.6034 91.9881 65.6034 91.2017H65.2034C65.2034 92.0328 65.3447 92.7637 65.6346 93.3888L65.9975 93.2206ZM65.6034 91.2017C65.6034 90.4222 65.7371 89.7562 65.9973 89.1982L65.6348 89.0291C65.3448 89.651 65.2034 90.377 65.2034 91.2017H65.6034ZM65.9973 89.1982C66.2585 88.6381 66.618 88.2126 67.0741 87.9137L66.8549 87.5792C66.3299 87.9233 65.9238 88.4093 65.6348 89.0291L65.9973 89.1982ZM67.0741 87.9137C67.529 87.6156 68.0568 87.4642 68.6648 87.4642V87.0642C67.9867 87.0642 67.3811 87.2343 66.8549 87.5792L67.0741 87.9137ZM68.6648 87.4642C69.143 87.4642 69.4967 87.5444 69.7434 87.6862L69.9427 87.3394C69.6126 87.1497 69.1809 87.0642 68.6648 87.0642V87.4642ZM69.7457 87.6875C70.0192 87.8398 70.2165 88.0078 70.3477 88.1875L70.6708 87.9517C70.497 87.7137 70.2502 87.5106 69.9403 87.338L69.7457 87.6875ZM70.3499 88.1904C70.5043 88.3941 70.622 88.5589 70.7045 88.6857L71.0398 88.4677C70.9499 88.3294 70.8257 88.156 70.6686 87.9488L70.3499 88.1904ZM70.8722 88.7767H70.9716V88.3767H70.8722V88.7767ZM71.1716 88.5767V84.8182H70.7716V88.5767H71.1716ZM70.9716 85.0182H72.1449V84.6182H70.9716V85.0182ZM71.9449 84.8182V95H72.3449V84.8182H71.9449ZM72.1449 94.8H71.0114V95.2H72.1449V94.8ZM71.2114 95V93.8267H70.8114V95H71.2114ZM71.0114 93.6267H70.8722V94.0267H71.0114V93.6267ZM70.7021 93.7214C70.6204 93.8535 70.5017 94.0238 70.3443 94.2337L70.6643 94.4737C70.825 94.2593 70.9516 94.0783 71.0422 93.932L70.7021 93.7214ZM70.3452 94.2325C70.2067 94.4143 70.003 94.5851 69.7252 94.7411L69.9211 95.0899C70.2333 94.9145 70.4837 94.7107 70.6633 94.4749L70.3452 94.2325ZM69.7267 94.7403C69.4717 94.8807 69.1161 94.9591 68.6449 94.9591V95.3591C69.1548 95.3591 69.5846 95.2751 69.9196 95.0907L69.7267 94.7403ZM68.804 94.3051C69.311 94.3051 69.7529 94.1723 70.1177 93.8968L69.8766 93.5776C69.5918 93.7927 69.2382 93.9051 68.804 93.9051V94.3051ZM70.1187 93.896C70.4768 93.622 70.7442 93.2469 70.9245 92.7802L70.5514 92.636C70.3936 93.0443 70.1671 93.3553 69.8756 93.5784L70.1187 93.896ZM70.9247 92.7797C71.1042 92.3116 71.1915 91.7777 71.1915 91.1818H70.7915C70.7915 91.7393 70.7098 92.223 70.5512 92.6365L70.9247 92.7797ZM71.1915 91.1818C71.1915 90.5928 71.1059 90.0685 70.9294 89.6131L70.5564 89.7576C70.7113 90.1573 70.7915 90.6307 70.7915 91.1818H71.1915ZM70.9296 89.6136C70.7522 89.1523 70.4855 88.7844 70.1255 88.5199L69.8887 88.8423C70.1784 89.0551 70.4022 89.3567 70.5562 89.7572L70.9296 89.6136ZM70.1266 88.5207C69.7614 88.2487 69.3164 88.1182 68.804 88.1182V88.5182C69.2461 88.5182 69.6032 88.6296 69.8876 88.8415L70.1266 88.5207ZM68.804 88.1182C68.2713 88.1182 67.8117 88.2556 67.4391 88.5425L67.6831 88.8595C67.9733 88.636 68.3424 88.5182 68.804 88.5182V88.1182ZM67.4393 88.5423C67.0783 88.8195 66.8107 89.1944 66.6335 89.6588L67.0072 89.8014C67.1614 89.3974 67.3876 89.0863 67.6829 88.8596L67.4393 88.5423ZM66.6332 89.6596C66.461 90.1164 66.3767 90.6247 66.3767 91.1818H66.7767C66.7767 90.6651 66.8548 90.2056 67.0075 89.8007L66.6332 89.6596ZM66.3767 91.1818C66.3767 91.7458 66.4627 92.2638 66.6379 92.7333L67.0127 92.5934C66.8564 92.1747 66.7767 91.705 66.7767 91.1818H66.3767ZM66.6385 92.735C66.8187 93.2048 67.087 93.5869 67.4463 93.8737L67.6958 93.561C67.3988 93.324 67.1699 93.0035 67.012 92.5917L66.6385 92.735ZM67.448 93.875C67.8203 94.1654 68.2766 94.3051 68.804 94.3051V93.9051C68.3503 93.9051 67.9847 93.7863 67.694 93.5596L67.448 93.875ZM75.7543 94.6719L75.649 94.842L75.6503 94.8427L75.7543 94.6719ZM74.5263 93.2997L74.3462 93.3867L74.3468 93.3879L74.5263 93.2997ZM74.5263 89.1733L74.346 89.0867L74.3458 89.0871L74.5263 89.1733ZM75.7294 87.7713L75.8386 87.9389L75.8389 87.9387L75.7294 87.7713ZM78.7173 87.4631L78.782 87.2738L78.7173 87.4631ZM79.7763 88.1094L79.6395 88.2553L79.6403 88.256L79.7763 88.1094ZM80.5369 89.2827L80.7234 89.2104V89.2104L80.5369 89.2827ZM80.8203 91.5795V91.7795H81.0203V91.5795H80.8203ZM74.9339 91.5795H74.7339V91.7795H74.9339V91.5795ZM74.9339 90.5653V90.3653H74.7339V90.5653H74.9339ZM79.6271 90.5653V90.7653H79.8271V90.5653H79.6271ZM79.3686 89.4119L79.1897 89.5014L79.1904 89.5028L79.3686 89.4119ZM78.6428 88.6115L78.5364 88.7809L78.5372 88.7814L78.6428 88.6115ZM76.326 88.6662L76.4381 88.8319L76.4384 88.8316L76.326 88.6662ZM75.5455 89.5611L75.3662 89.4723L75.5455 89.5611ZM75.5703 92.8871L75.3911 92.9759L75.392 92.9777L75.5703 92.8871ZM76.4105 93.7969L76.3097 93.9696L76.3109 93.9703L76.4105 93.7969ZM78.4936 93.9759L78.5591 94.1648L78.5606 94.1643L78.4936 93.9759ZM79.1449 93.5781L79.2837 93.7221L79.285 93.7208L79.1449 93.5781ZM79.5675 92.9119L79.6215 92.7194L79.4447 92.6697L79.3802 92.8417L79.5675 92.9119ZM80.701 93.2301L80.892 93.2894L80.9529 93.0931L80.755 93.0376L80.701 93.2301ZM80.0994 94.2443L80.2425 94.3841L80.2433 94.3833L80.0994 94.2443ZM79.0554 94.9205L79.1271 95.1072L79.1284 95.1067L79.0554 94.9205ZM77.6584 94.9591C76.9527 94.9591 76.3553 94.8036 75.8582 94.501L75.6503 94.8427C76.2204 95.1898 76.8925 95.3591 77.6584 95.3591V94.9591ZM75.8595 94.5018C75.3627 94.1944 74.9784 93.7661 74.7058 93.2115L74.3468 93.3879C74.6509 94.0066 75.0852 94.4931 75.649 94.842L75.8595 94.5018ZM74.7064 93.2127C74.4367 92.6546 74.2987 91.9993 74.2987 91.2415H73.8987C73.8987 92.048 74.0457 92.7649 74.3462 93.3867L74.7064 93.2127ZM74.2987 91.2415C74.2987 90.4837 74.4367 89.8247 74.7067 89.2595L74.3458 89.0871C74.0458 89.7151 73.8987 90.4349 73.8987 91.2415H74.2987ZM74.7065 89.2599C74.9804 88.6901 75.3581 88.252 75.8386 87.9389L75.6202 87.6037C75.0732 87.9602 74.6488 88.4567 74.346 89.0867L74.7065 89.2599ZM75.8389 87.9387C76.3197 87.6243 76.8839 87.4642 77.5391 87.4642V87.0642C76.8155 87.0642 76.1732 87.2422 75.62 87.6039L75.8389 87.9387ZM77.5391 87.4642C77.9141 87.4642 78.285 87.5266 78.6526 87.6523L78.782 87.2738C78.3741 87.1343 77.9595 87.0642 77.5391 87.0642V87.4642ZM78.6526 87.6523C79.0119 87.7751 79.3406 87.9751 79.6395 88.2553L79.9131 87.9635C79.5756 87.647 79.1983 87.4162 78.782 87.2738L78.6526 87.6523ZM79.6403 88.256C79.9321 88.5266 80.1703 88.8904 80.3505 89.355L80.7234 89.2104C80.5257 88.7006 80.2568 88.2821 79.9123 87.9627L79.6403 88.256ZM80.3505 89.355C80.5278 89.8124 80.6203 90.3861 80.6203 91.0824H81.0203C81.0203 90.3535 80.9239 89.7274 80.7234 89.2104L80.3505 89.355ZM80.6203 91.0824V91.5795H81.0203V91.0824H80.6203ZM80.8203 91.3795H74.9339V91.7795H80.8203V91.3795ZM75.1339 91.5795V90.5653H74.7339V91.5795H75.1339ZM74.9339 90.7653H79.6271V90.3653H74.9339V90.7653ZM79.8271 90.5653C79.8271 90.1072 79.7353 89.6909 79.5468 89.3211L79.1904 89.5028C79.3466 89.8091 79.4271 90.1617 79.4271 90.5653H79.8271ZM79.5475 89.3225C79.3623 88.952 79.0952 88.6571 78.7483 88.4416L78.5372 88.7814C78.82 88.957 79.0369 89.1957 79.1897 89.5014L79.5475 89.3225ZM78.7491 88.4421C78.401 88.2236 77.995 88.1182 77.5391 88.1182V88.5182C77.9316 88.5182 78.2614 88.6083 78.5364 88.7809L78.7491 88.4421ZM77.5391 88.1182C77.0371 88.1182 76.5924 88.2433 76.2136 88.5008L76.4384 88.8316C76.7424 88.625 77.1063 88.5182 77.5391 88.5182V88.1182ZM76.2139 88.5005C75.847 88.7487 75.5638 89.0736 75.3662 89.4723L75.7247 89.6499C75.8917 89.3128 76.1288 89.041 76.4381 88.8319L76.2139 88.5005ZM75.3662 89.4723C75.1699 89.8685 75.072 90.2934 75.072 90.7443H75.472C75.472 90.3534 75.5564 89.9895 75.7247 89.6499L75.3662 89.4723ZM75.072 90.7443V91.4205H75.472V90.7443H75.072ZM75.072 91.4205C75.072 92.0194 75.1752 92.5405 75.3911 92.9759L75.7495 92.7982C75.5677 92.4316 75.472 91.9749 75.472 91.4205H75.072ZM75.392 92.9777C75.6102 93.4069 75.916 93.74 76.3097 93.9696L76.5113 93.6241C76.1891 93.4362 75.9348 93.1627 75.7486 92.7964L75.392 92.9777ZM76.3109 93.9703C76.7034 94.1957 77.1547 94.3051 77.6584 94.3051V93.9051C77.2141 93.9051 76.8335 93.8091 76.5101 93.6234L76.3109 93.9703ZM77.6584 94.3051C77.9852 94.3051 78.2862 94.2594 78.5591 94.1648L78.4281 93.7869C78.2039 93.8646 77.9481 93.9051 77.6584 93.9051V94.3051ZM78.5606 94.1643C78.8378 94.0658 79.0797 93.9187 79.2837 93.7221L79.0061 93.4341C78.8455 93.5889 78.6532 93.7069 78.4267 93.7874L78.5606 94.1643ZM79.285 93.7208C79.4903 93.5193 79.6462 93.2716 79.7547 92.9822L79.3802 92.8417C79.2899 93.0825 79.1641 93.279 79.0048 93.4354L79.285 93.7208ZM79.5134 93.1045L80.6469 93.4227L80.755 93.0376L79.6215 92.7194L79.5134 93.1045ZM80.51 93.1708C80.4 93.5252 80.2157 93.836 79.9556 94.1054L80.2433 94.3833C80.5466 94.0693 80.7633 93.704 80.892 93.2894L80.51 93.1708ZM79.9564 94.1046C79.6964 94.3706 79.3731 94.5811 78.9824 94.7343L79.1284 95.1067C79.5663 94.935 79.939 94.6947 80.2425 94.3841L79.9564 94.1046ZM78.9837 94.7337C78.5957 94.8827 78.1549 94.9591 77.6584 94.9591V95.3591C78.196 95.3591 78.6865 95.2764 79.1271 95.1072L78.9837 94.7337ZM83.8928 94.6669L83.7856 94.8358L83.7861 94.8361L83.8928 94.6669ZM82.6797 93.2898L82.5 93.3776L82.5004 93.3784L82.6797 93.2898ZM82.6797 89.1385L82.5002 89.0503L82.4998 89.0511L82.6797 89.1385ZM83.8928 87.7564L83.7861 87.5872L83.7856 87.5875L83.8928 87.7564ZM87.517 87.7564L87.4099 87.9253L87.4104 87.9256L87.517 87.7564ZM88.7301 89.1385L88.5502 89.2259L88.5506 89.2267L88.7301 89.1385ZM88.7301 93.2898L88.5508 93.2011L88.5504 93.2019L88.7301 93.2898ZM87.517 94.6669L87.4104 94.4977L87.4099 94.498L87.517 94.6669ZM87 93.7024L86.8756 93.5458L87 93.7024ZM87.7507 92.6435L87.9382 92.7131L87.7507 92.6435ZM87.7507 89.7947L87.9384 89.7256L87.7507 89.7947ZM87 88.7259L87.1253 88.57L87 88.7259ZM84.4148 88.7259L84.2895 88.57L84.4148 88.7259ZM83.6641 89.7947L83.4764 89.7256L83.6641 89.7947ZM83.6641 92.6435L83.4766 92.7131L83.6641 92.6435ZM84.4148 93.7024L84.5392 93.5458L84.4148 93.7024ZM85.7074 94.9591C85.0511 94.9591 84.4841 94.8034 83.9994 94.4977L83.7861 94.8361C84.3421 95.1867 84.9849 95.3591 85.7074 95.3591V94.9591ZM83.9999 94.498C83.5161 94.191 83.1357 93.7608 82.859 93.2011L82.5004 93.3784C82.807 93.9987 83.2353 94.4865 83.7856 94.8358L83.9999 94.498ZM82.8594 93.2019C82.5868 92.6443 82.4472 91.986 82.4472 91.2216H82.0472C82.0472 92.0348 82.1959 92.7553 82.5 93.3776L82.8594 93.2019ZM82.4472 91.2216C82.4472 90.4503 82.5869 89.7869 82.8596 89.2259L82.4998 89.0511C82.1958 89.6766 82.0472 90.402 82.0472 91.2216H82.4472ZM82.8592 89.2267C83.1359 88.6637 83.5164 88.2321 83.9999 87.9253L83.7856 87.5875C83.235 87.9369 82.8068 88.4267 82.5002 89.0503L82.8592 89.2267ZM83.9994 87.9256C84.4841 87.6199 85.0511 87.4642 85.7074 87.4642V87.0642C84.9849 87.0642 84.3421 87.2366 83.7861 87.5872L83.9994 87.9256ZM85.7074 87.4642C86.3637 87.4642 86.9288 87.62 87.4099 87.9253L87.6242 87.5875C87.0712 87.2366 86.4298 87.0642 85.7074 87.0642V87.4642ZM87.4104 87.9256C87.8969 88.2324 88.277 88.6637 88.5502 89.2259L88.91 89.0511C88.6066 88.4268 88.1779 87.9367 87.6237 87.5872L87.4104 87.9256ZM88.5506 89.2267C88.8263 89.7875 88.9676 90.4506 88.9676 91.2216H89.3676C89.3676 90.4017 89.2172 89.676 88.9096 89.0503L88.5506 89.2267ZM88.9676 91.2216C88.9676 91.9857 88.8264 92.6437 88.5508 93.2011L88.9094 93.3784C89.2171 92.7559 89.3676 92.0351 89.3676 91.2216H88.9676ZM88.5504 93.2019C88.2772 93.7609 87.8972 94.1908 87.4104 94.4977L87.6237 94.8361C88.1776 94.4868 88.6063 93.9986 88.9098 93.3776L88.5504 93.2019ZM87.4099 94.498C86.9288 94.8033 86.3637 94.9591 85.7074 94.9591V95.3591C86.4298 95.3591 87.0712 95.1867 87.6242 94.8358L87.4099 94.498ZM85.7074 94.3051C86.2663 94.3051 86.7439 94.1612 87.1244 93.859L86.8756 93.5458C86.58 93.7806 86.1958 93.9051 85.7074 93.9051V94.3051ZM87.1244 93.859C87.4933 93.566 87.7642 93.1819 87.9382 92.7131L87.5632 92.5739C87.4124 92.98 87.1828 93.3019 86.8756 93.5458L87.1244 93.859ZM87.9382 92.7131C88.1096 92.2513 88.1943 91.7535 88.1943 91.2216H87.7943C87.7943 91.7105 87.7166 92.1606 87.5632 92.5739L87.9382 92.7131ZM88.1943 91.2216C88.1943 90.6896 88.1096 90.1904 87.9384 89.7256L87.563 89.8639C87.7166 90.2807 87.7943 90.7327 87.7943 91.2216H88.1943ZM87.9384 89.7256C87.7645 89.2537 87.494 88.8664 87.1253 88.57L86.8747 88.8817C87.1822 89.1289 87.4121 89.4542 87.563 89.8639L87.9384 89.7256ZM87.1253 88.57C86.7448 88.2641 86.2669 88.1182 85.7074 88.1182V88.5182C86.1953 88.5182 86.5791 88.6441 86.8747 88.8817L87.1253 88.57ZM85.7074 88.1182C85.1479 88.1182 84.67 88.2641 84.2895 88.57L84.5401 88.8817C84.8357 88.6441 85.2195 88.5182 85.7074 88.5182V88.1182ZM84.2895 88.57C83.9208 88.8664 83.6503 89.2537 83.4764 89.7256L83.8517 89.8639C84.0027 89.4542 84.2326 89.1289 84.5401 88.8817L84.2895 88.57ZM83.4764 89.7256C83.3052 90.1904 83.2205 90.6896 83.2205 91.2216H83.6205C83.6205 90.7327 83.6982 90.2807 83.8517 89.8639L83.4764 89.7256ZM83.2205 91.2216C83.2205 91.7535 83.3051 92.2513 83.4766 92.7131L83.8516 92.5739C83.6982 92.1606 83.6205 91.7105 83.6205 91.2216H83.2205ZM83.4766 92.7131C83.6506 93.1819 83.9214 93.566 84.2904 93.859L84.5392 93.5458C84.232 93.3019 84.0023 92.98 83.8516 92.5739L83.4766 92.7131ZM84.2904 93.859C84.6709 94.1612 85.1485 94.3051 85.7074 94.3051V93.9051C85.2189 93.9051 84.8348 93.7806 84.5392 93.5458L84.2904 93.859Z" fill="black" mask="url(#path-1-outside-1_256_17607)"/>
<g filter="url(#filter0_d_256_17607)">
<rect x="0.1" y="0.1" width="109.8" height="159.8" rx="9.9" stroke="black" stroke-width="0.2" shape-rendering="crispEdges"/>
</g>
<path d="M53 71H55V67H59V65H55V61H53V65H49V67H53V71ZM54 76C52.6167 76 51.3167 75.7417 50.1 75.225C48.8833 74.6917 47.825 73.975 46.925 73.075C46.025 72.175 45.3083 71.1167 44.775 69.9C44.2583 68.6833 44 67.3833 44 66C44 64.6167 44.2583 63.3167 44.775 62.1C45.3083 60.8833 46.025 59.825 46.925 58.925C47.825 58.025 48.8833 57.3167 50.1 56.8C51.3167 56.2667 52.6167 56 54 56C55.3833 56 56.6833 56.2667 57.9 56.8C59.1167 57.3167 60.175 58.025 61.075 58.925C61.975 59.825 62.6833 60.8833 63.2 62.1C63.7333 63.3167 64 64.6167 64 66C64 67.3833 63.7333 68.6833 63.2 69.9C62.6833 71.1167 61.975 72.175 61.075 73.075C60.175 73.975 59.1167 74.6917 57.9 75.225C56.6833 75.7417 55.3833 76 54 76ZM54 74C56.2333 74 58.125 73.225 59.675 71.675C61.225 70.125 62 68.2333 62 66C62 63.7667 61.225 61.875 59.675 60.325C58.125 58.775 56.2333 58 54 58C51.7667 58 49.875 58.775 48.325 60.325C46.775 61.875 46 63.7667 46 66C46 68.2333 46.775 70.125 48.325 71.675C49.875 73.225 51.7667 74 54 74Z" fill="#1D1B20"/>
<defs>
<filter id="filter0_d_256_17607" x="-4" y="0" width="118" height="168" filterUnits="userSpaceOnUse" color-interpolation-filters="sRGB">
<feFlood flood-opacity="0" result="BackgroundImageFix"/>
<feColorMatrix in="SourceAlpha" type="matrix" values="0 0 0 0 0 0 0 0 0 0 0 0 0 0 0 0 0 0 127 0" result="hardAlpha"/>
<feOffset dy="4"/>
<feGaussianBlur stdDeviation="2"/>
<feComposite in2="hardAlpha" operator="out"/>
<feColorMatrix type="matrix" values="0 0 0 0 0 0 0 0 0 0 0 0 0 0 0 0 0 0 0.25 0"/>
<feBlend mode="normal" in2="BackgroundImageFix" result="effect1_dropShadow_256_17607"/>
<feBlend mode="normal" in="SourceGraphic" in2="effect1_dropShadow_256_17607" result="shape"/>
</filter>
</defs>
</svg>
