<svg width="19" height="23" viewBox="0 0 19 23" fill="none" xmlns="http://www.w3.org/2000/svg">
<path d="M9.5 11.5C10.1187 11.5 10.6486 11.2795 11.0896 10.8385C11.5306 10.3975 11.7507 9.868 11.75 9.25C11.75 8.63125 11.5295 8.10138 11.0885 7.66038C10.6475 7.21938 10.118 6.99925 9.5 7C8.88125 7 8.35138 7.2205 7.91037 7.6615C7.46937 8.1025 7.24925 8.632 7.25 9.25C7.25 9.86875 7.4705 10.3986 7.9115 10.8396C8.3525 11.2806 8.882 11.5008 9.5 11.5ZM9.5 22.75C6.48125 20.1813 4.22675 17.7955 2.7365 15.5928C1.24625 13.39 0.50075 11.3508 0.5 9.475C0.5 6.6625 1.40488 4.42188 3.21463 2.75313C5.02437 1.08437 7.1195 0.25 9.5 0.25C11.8812 0.25 13.9767 1.08437 15.7865 2.75313C17.5962 4.42188 18.5007 6.6625 18.5 9.475C18.5 11.35 17.7545 13.3893 16.2635 15.5928C14.7725 17.7963 12.518 20.182 9.5 22.75Z" fill="black"/>
</svg>
